<svg xmlns="http://www.w3.org/2000/svg" xmlns:xlink="http://www.w3.org/1999/xlink" viewBox="0 0 35.76 37.56"><defs><style>.cls-1{fill:url(#Degradado_sin_nombre_8);}.cls-2,.cls-3{fill:#fff;}.cls-3{fill-rule:evenodd;}</style><linearGradient id="Degradado_sin_nombre_8" x1="5.53" y1="7.36" x2="29.3" y2="31.12" gradientUnits="userSpaceOnUse"><stop offset="0" stop-color="#60fc7c"/><stop offset="1" stop-color="#4ab161"/></linearGradient></defs><g id="Camada_2" data-name="Camada 2"><g id="ELEMENTS"><path class="cls-1" d="M33.13,14.15c1.19-2-1.21-4.85-3.42-3.42l-.06,0L30,10.4c2.06-1.94-.6-5.43-3-3.93-1.51.94-3,1.92-4.5,2.91q1.85-1.8,3.73-3.52c2.17-2-.59-5.23-3-3.93-.58.31-1.14.65-1.72,1A2.57,2.57,0,0,0,17.76.26a60.78,60.78,0,0,0-15.1,10c-2,1.76,0,4.42,2.14,4.19C3.29,16.23,1.82,18.07.43,20s.93,4.15,2.86,3.65L2,25.37a2.49,2.49,0,0,0,.65,3.23,2.52,2.52,0,0,0,3.28-.2l.82-.71c-.45.53-.92,1-1.36,1.57a2.56,2.56,0,0,0,0,3.54,2.55,2.55,0,0,0,3.1.34,2.65,2.65,0,0,0,.94,1.56,2.48,2.48,0,0,0,3,0c-.08,1.82,2,3.71,3.71,2.39l3.08-2.33a2.47,2.47,0,0,0,3.94.7,55.63,55.63,0,0,1,7.3-5.57,2.46,2.46,0,0,0,.8-3.39l2.52-2.79a2.51,2.51,0,0,0,.19-3.28,2.39,2.39,0,0,0-.55-.5L35,18.43C36.77,16.81,35.13,14.08,33.13,14.15Z"/><path class="cls-2" d="M10,26.93l1.22-4.55a8.42,8.42,0,1,1,3.35,3.32ZM14.78,24l.29.17a6.85,6.85,0,1,0-2.34-2.32l.18.29-.68,2.54Z"/><path class="cls-3" d="M21.67,19.49a1.39,1.39,0,0,0-1.2-.27c-.32.13-.51.61-.72.86a.29.29,0,0,1-.38.09,5.4,5.4,0,0,1-2.72-2.33.34.34,0,0,1,0-.46,1.85,1.85,0,0,0,.49-.8,1.69,1.69,0,0,0-.22-.95,2.17,2.17,0,0,0-.7-1.05,1,1,0,0,0-1,.15,2.12,2.12,0,0,0-.73,1.68,2.33,2.33,0,0,0,.06.53,4.26,4.26,0,0,0,.51,1.18c.17.28.34.55.53.81a8.17,8.17,0,0,0,2.32,2.14,6.82,6.82,0,0,0,1.44.69A3.13,3.13,0,0,0,21,22a2,2,0,0,0,1.52-1.13,1,1,0,0,0,.07-.57C22.53,19.92,22,19.68,21.67,19.49Z"/></g></g></svg>