<svg xmlns="http://www.w3.org/2000/svg" xmlns:xlink="http://www.w3.org/1999/xlink" viewBox="0 0 35.76 37.56"><defs><style>.cls-1{fill:url(#Degradado_sin_nombre_7);}.cls-2{fill:#fff;}</style><linearGradient id="Degradado_sin_nombre_7" x1="5.53" y1="7.36" x2="29.3" y2="31.12" gradientUnits="userSpaceOnUse"><stop offset="0" stop-color="red"/><stop offset="1" stop-color="#850000"/></linearGradient></defs><g id="Camada_2" data-name="Camada 2"><g id="ELEMENTS"><path class="cls-1" d="M33.13,14.15c1.19-2-1.21-4.85-3.42-3.42l-.06,0L30,10.4c2.06-1.94-.6-5.43-3-3.93-1.51.94-3,1.92-4.5,2.91q1.85-1.8,3.73-3.52c2.17-2-.59-5.23-3-3.93-.58.31-1.14.65-1.72,1A2.57,2.57,0,0,0,17.76.26a60.78,60.78,0,0,0-15.1,10c-2,1.76,0,4.42,2.14,4.19C3.29,16.23,1.82,18.07.43,20s.93,4.15,2.86,3.65L2,25.37a2.49,2.49,0,0,0,.65,3.23,2.52,2.52,0,0,0,3.28-.2l.82-.71c-.45.53-.92,1-1.36,1.57a2.56,2.56,0,0,0,0,3.54,2.55,2.55,0,0,0,3.1.34,2.65,2.65,0,0,0,.94,1.56,2.48,2.48,0,0,0,3,0c-.08,1.82,2,3.71,3.71,2.39l3.08-2.33a2.47,2.47,0,0,0,3.94.7,55.63,55.63,0,0,1,7.3-5.57,2.46,2.46,0,0,0,.8-3.39l2.52-2.79a2.51,2.51,0,0,0,.19-3.28,2.39,2.39,0,0,0-.55-.5L35,18.43C36.77,16.81,35.13,14.08,33.13,14.15Z"/><path class="cls-2" d="M25.71,16.53A3.52,3.52,0,0,0,22.2,13h-9a3.52,3.52,0,0,0-3.51,3.52V20.7a3.51,3.51,0,0,0,3.51,3.51h9a3.51,3.51,0,0,0,3.51-3.51Zm-5.28,2.4-4,2c-.15.09-.69,0-.69-.21V16.62c0-.18.54-.29.7-.2l3.85,2.09C20.42,18.61,20.59,18.84,20.43,18.93Z"/></g></g></svg>