<?xml version="1.0" encoding="utf-8"?>
<!-- Generator: Adobe Illustrator 24.2.1, SVG Export Plug-In . SVG Version: 6.00 Build 0)  -->
<svg version="1.1" id="Camada_1" xmlns="http://www.w3.org/2000/svg" xmlns:xlink="http://www.w3.org/1999/xlink" x="0px" y="0px"
	 viewBox="0 0 80 80" style="enable-background:new 0 0 80 80;" xml:space="preserve">
<style type="text/css">
	.st0{fill:url(#SVGID_1_);}
	.st1{fill:#FFFFFF;}
</style>
<linearGradient id="SVGID_1_" gradientUnits="userSpaceOnUse" x1="13.7303" y1="66.3484" x2="64.3429" y2="15.7359" gradientTransform="matrix(1 0 0 -1 0 82)">
	<stop  offset="0" style="stop-color:#FF679A"/>
	<stop  offset="0.7919" style="stop-color:#E72096"/>
	<stop  offset="1" style="stop-color:#E00D95"/>
</linearGradient>
<path class="st0" d="M72.5,30.1c2.5-4.2-2.6-10.3-7.3-7.3c0,0-0.1,0-0.1,0.1c0.3-0.3,0.5-0.5,0.8-0.8c4.4-4.1-1.3-11.6-6.5-8.4
	c-3.2,2-6.4,4.1-9.6,6.2c2.6-2.5,5.3-5,8-7.5c4.6-4.2-1.3-11.1-6.5-8.4c-1.2,0.7-2.4,1.4-3.7,2.1c0.8-3.9-3.5-7.6-7.9-5.6
	C28,6,17.2,13.2,7.6,21.8c-4.2,3.7,0.1,9.4,4.6,8.9C9,34.6,5.9,38.5,2.9,42.5c-3,4.1,2,8.8,6.1,7.8c-1,1.3-1.9,2.5-2.9,3.7
	c-1.5,2.1-0.6,5.4,1.4,6.9c2.2,1.6,5,1.4,7-0.4c0.6-0.5,1.2-1,1.7-1.5c-1,1.1-1.9,2.2-2.9,3.3c-1.8,2.2-2.2,5.4,0,7.5
	c1.7,1.7,4.6,2,6.6,0.7c0.3,1.3,1,2.6,2,3.3c2.1,1.5,4.3,1.3,6.3,0.1c-0.2,3.9,4.2,7.9,7.9,5.1c2.2-1.7,4.4-3.3,6.6-5
	c1.5,2.8,5.3,4.3,8.4,1.5c4.9-4.4,10-8.3,15.5-11.9c2.8-1.8,3-4.9,1.7-7.2l5.4-5.9c1.8-2,2.1-4.9,0.4-7c-0.3-0.4-0.7-0.8-1.2-1.1
	c1.2-1.1,2.4-2.2,3.5-3.3C80.2,35.8,76.7,30,72.5,30.1z"/>
<g id="Camada_2_1_">
	<g id="Camada_1-2">
		<path class="st1" d="M58.2,24.6c-2.5-2.5-5.8-4-9.4-4c-3.3,0-6.4,1.3-8.8,3.5c-2.4-2.3-5.6-3.5-8.8-3.5c-1.3,0-2.6,0.2-3.8,0.6
			c-0.8,0.3-0.4,1.5,0.4,1.3c1.1-0.4,2.3-0.5,3.4-0.5c3.2,0,6.2,1.3,8.4,3.6c0.3,0.3,0.7,0.3,0.9,0l0,0c4.4-4.6,11.8-4.8,16.4-0.4
			c0.1,0.1,0.3,0.3,0.4,0.4c2.6,2.6,4,6.2,3.9,9.9c-0.1,4.4-1.2,8.7-3.4,12.5c-1.8,3.2-4.3,6.2-7.3,9.1c-3.1,2.9-6.7,5.3-10.4,7.2
			c-3.8-2-7.3-4.4-10.5-7.3c-3.1-2.8-5.6-5.9-7.4-9.1c-2.2-3.8-3.3-8.1-3.3-12.4c0-4.7,2.2-9,5.8-11.5c0.7-0.5,0-1.6-0.7-1.1
			c-4,2.7-6.4,7.4-6.4,12.6c0,4.5,1.2,8.9,3.5,13.1c1.8,3.3,4.4,6.5,7.6,9.4c3.3,3,7.1,5.6,11.1,7.6c0.2,0.1,0.4,0.1,0.6,0
			c4-2,7.7-4.6,11-7.6c3.2-2.9,5.8-6.1,7.6-9.4c2.3-4,3.5-8.5,3.6-13.1C62.6,31.4,61,27.5,58.2,24.6L58.2,24.6z"/>
		<path class="st1" d="M35.4,44.8c0,0.2-0.1,0.4-0.3,0.5c-2.3,1-3.5,3.6-2.5,6c0.7,1.7,2.3,2.8,4.1,2.9c0.7,0,1.4-0.1,2-0.4
			c0.9-0.4,1.8-0.4,2.7,0c0.6,0.3,1.2,0.4,1.8,0.4c0.9,0,1.1-1.4,0.1-1.3c-0.5,0-1-0.1-1.4-0.3c-1.2-0.5-2.6-0.5-3.8,0
			c-0.4,0.2-0.9,0.3-1.4,0.3c-1.8-0.1-3.2-1.6-3.2-3.4c0-1.3,0.8-2.4,2-2.9c0.7-0.3,1.1-1,1.1-1.7c0-1.8,1.4-3.3,3.2-3.4
			c1.8,0,3.3,1.4,3.4,3.2c0,0.1,0,0.1,0,0.2c0,0.7,0.5,1.4,1.2,1.7c1.3,0.5,2.2,1.8,2.1,3.2c0,0.7-0.3,1.3-0.7,1.9
			c-0.5,0.7,0.5,1.5,1,0.8c1.6-2,1.2-4.9-0.8-6.4c-0.4-0.3-0.8-0.5-1.2-0.7c-0.2-0.1-0.3-0.2-0.3-0.4c0-2.5-2.1-4.6-4.6-4.6
			C37.4,40.2,35.4,42.2,35.4,44.8z"/>
		<path class="st1" d="M37.5,31.1c-1-0.7-2.1-0.9-3.2-0.6c-2.4,0.7-3,3.7-2.4,5.9c0.7,2.2,2.8,4.3,5.3,3.6c2.1-0.6,3.2-3.3,2.4-5.9
			C39.2,32.9,38.5,31.9,37.5,31.1z M36.8,38.7c-1.7,0.5-3.2-1.2-3.6-2.7c-0.5-1.5-0.2-3.7,1.5-4.3c1.7-0.5,3.2,1.3,3.6,2.7
			C38.8,36.4,38.2,38.3,36.8,38.7z"/>
		<path class="st1" d="M28.7,38.2c-1.7,0.9-2.2,3.3-1.2,5.4c0.9,1.7,3.1,3.2,5,2.2c1.7-0.9,2.2-3.3,1.2-5.4S30.4,37.3,28.7,38.2z
			 M32.6,41c0.7,1.5,0.5,3.1-0.6,3.6c-1.3,0.7-2.7-0.6-3.3-1.7c-0.7-1.5-0.5-3.1,0.6-3.6C30.6,38.7,32,39.9,32.6,41L32.6,41z"/>
		<path class="st1" d="M45.7,30.4c-2.1-0.6-4.5,1-5.3,3.6s0.3,5.3,2.4,5.9c2.4,0.7,4.6-1.4,5.3-3.6C48.9,33.7,47.8,31.1,45.7,30.4z
			 M46.9,35.9c-0.6,1.9-2.2,3.1-3.6,2.7c-1.4-0.4-2.1-2.3-1.5-4.3c0.6-1.9,2.2-3.1,3.6-2.7C46.8,32.1,47.4,34,46.9,35.9L46.9,35.9z"
			/>
		<path class="st1" d="M46.2,40.3c-0.9,1.7-0.8,4.4,1.2,5.4s4.1-0.5,5-2.2s0.8-4.4-1.2-5.4C49.3,37.1,47.1,38.6,46.2,40.3z
			 M47.4,40.9c0.5-1.1,1.9-2.3,3.3-1.7c1.3,0.7,1.1,2.5,0.6,3.6s-2,2.3-3.3,1.7S46.9,42,47.4,40.9L47.4,40.9z"/>
	</g>
</g>
</svg>
