<svg xmlns="http://www.w3.org/2000/svg" viewBox="0 0 728.02 140.31"><defs><style>.cls-1{fill:#fff;}.cls-2{fill:#2486c8;}</style></defs><g id="Camada_2" data-name="Camada 2"><g id="Camada_1-2" data-name="Camada 1"><path class="cls-1" d="M705.61,116.25A15.93,15.93,0,0,1,694,111.72a20.66,20.66,0,0,1-5.33-9.5,32.16,32.16,0,0,1-1.05-9.75c0-.06,0-.11,0-.17.16-2,.4-4.08.72-6.19a.5.5,0,0,1,0-.12,45.33,45.33,0,0,0,.62-9.32,7.82,7.82,0,0,0-2.24-5.25,4.07,4.07,0,0,0-2.6-1.4h-.06a3.83,3.83,0,0,0-2.69,1.25,6.65,6.65,0,0,0-1.79,3.77,19.17,19.17,0,0,0,.05,4.48,50.88,50.88,0,0,0,1,5.33A67.29,67.29,0,0,1,682,92.94a25.13,25.13,0,0,1-1,9.7s0,0,0,.08a20.25,20.25,0,0,1-6,9.27,18.66,18.66,0,0,1-10,4.64,15.67,15.67,0,0,1-11.72-3.13l-.26-.2a19,19,0,0,1-6.61-9.51,30.15,30.15,0,0,1-1.2-10,75.31,75.31,0,0,1,.89-8.66,11.86,11.86,0,0,1,.19-1.35,36.05,36.05,0,0,0,.24-7.34A9.18,9.18,0,0,0,645,71.5a2.26,2.26,0,0,0-1.29-.2,6.4,6.4,0,0,0-.73,0,4.49,4.49,0,0,0-3,1.71A11.13,11.13,0,0,0,638.05,78a29,29,0,0,0-.21,6.79s.16,1.82.16,1.82a83.48,83.48,0,0,1,.44,8.89,27.25,27.25,0,0,1-2,10.12,17.93,17.93,0,0,1-8,8.83l-.29.15a16.73,16.73,0,0,1-7.16,1.88,15.35,15.35,0,0,1-11-4.51c-.11-.1-.22-.22-.33-.34a19.9,19.9,0,0,1-4.34-7.69,38.19,38.19,0,0,1-1.4-7.2c-.76-6.47-1.3-13.07-1.6-19.62-.06-1.15-.14-2.35-.24-3.54,0-.08,0-.15,0-.22-.07-1.49-.19-3-.36-4.53a70.55,70.55,0,0,1-.32-14.43.53.53,0,0,0,0-.13,20,20,0,0,1,2.82-8.33,15.25,15.25,0,0,1,7.5-6.35l.12,0a15.21,15.21,0,0,1,5.08-1A15.52,15.52,0,0,1,621,39a13,13,0,0,1,8,5.71c.09.14.18.29.26.44a21.39,21.39,0,0,1,.9,2,24.6,24.6,0,0,1,6.12-5.38l.11-.07a24.1,24.1,0,0,1,11.72-3.45,22.4,22.4,0,0,1,4.31.31,26,26,0,0,1,14.1,7.28l.19.2a9.33,9.33,0,0,0,2.47,2h.07l.22,0a6.78,6.78,0,0,0,2.3-2,1.81,1.81,0,0,1,.18-.23,30.31,30.31,0,0,1,2.92-3.06l.42-.34A24.92,24.92,0,0,1,690,37.53a37,37,0,0,1,14.18,2.25l.21.08a25.59,25.59,0,0,1,11.79,9.83,33.8,33.8,0,0,1,5,13.57,103.38,103.38,0,0,1,1,15.67c-.06,5-.27,10.07-.62,15a50.75,50.75,0,0,1-.94,8,22.3,22.3,0,0,1-3.84,8.94c-1.7,2.31-4.94,5.12-10.76,5.4h-.3Z"/><path class="cls-2" d="M617.14,44.48a9.13,9.13,0,0,1,2.42.27A7.06,7.06,0,0,1,624,47.9a19.17,19.17,0,0,1,1.08,2.55,12.5,12.5,0,0,0,2,4.15,2.24,2.24,0,0,0,1.93.95,4.88,4.88,0,0,0,2.07-.61,8.87,8.87,0,0,0,2.68-2.74l.72-1a18.38,18.38,0,0,1,4.93-4.45,18.13,18.13,0,0,1,8.84-2.64,16.63,16.63,0,0,1,3.21.23A20,20,0,0,1,662.32,50a15.18,15.18,0,0,0,4.07,3.16,6,6,0,0,0,3,.68,8.72,8.72,0,0,0,2.07-.33,12.6,12.6,0,0,0,5.05-4.05A23.72,23.72,0,0,1,678.81,47a19,19,0,0,1,11.28-3.56A31.1,31.1,0,0,1,702,45.31a19.8,19.8,0,0,1,9.13,7.57,27.72,27.72,0,0,1,4.07,11.21,97.91,97.91,0,0,1,.93,14.77q-.09,7.47-.61,14.74a44.82,44.82,0,0,1-.84,7.15,16.12,16.12,0,0,1-2.8,6.57,7.79,7.79,0,0,1-6.27,3,10,10,0,0,1-7.37-2.78,14.71,14.71,0,0,1-3.8-6.82,26.08,26.08,0,0,1-.87-8c.15-1.87.38-3.79.68-5.78a50.92,50.92,0,0,0,.7-10.55A13.77,13.77,0,0,0,691,67.25a9.65,9.65,0,0,0-7-3.16h-.25a9.76,9.76,0,0,0-6.55,3,12.65,12.65,0,0,0-3.5,7.19,25.78,25.78,0,0,0,0,6,57.84,57.84,0,0,0,1.08,5.94,62.87,62.87,0,0,1,1.19,7.31,19.22,19.22,0,0,1-.75,7.41,14.39,14.39,0,0,1-4.28,6.6,12.76,12.76,0,0,1-6.9,3.21,7.42,7.42,0,0,1-1,.08,10.54,10.54,0,0,1-6.44-2.17,13.16,13.16,0,0,1-4.63-6.57,23.94,23.94,0,0,1-.95-8,69.18,69.18,0,0,1,.85-8.19,8.79,8.79,0,0,1,.15-1.08,42.64,42.64,0,0,0,.32-8.69,15.14,15.14,0,0,0-2.61-8c-1.32-1.85-3.41-2.75-6.25-2.68-.49,0-1,0-1.54.11a10.56,10.56,0,0,0-6.9,4.15,17,17,0,0,0-2.92,7.52,35,35,0,0,0-.25,8.2c.06.6.11,1.21.16,1.82a72.77,72.77,0,0,1,.41,8.3,20.86,20.86,0,0,1-1.51,7.91,12,12,0,0,1-5.43,5.91,10.83,10.83,0,0,1-4.64,1.26,9.39,9.39,0,0,1-6.76-2.89,14,14,0,0,1-3.06-5.41,31.89,31.89,0,0,1-1.19-6.14q-1.12-9.57-1.57-19.26c-.07-1.25-.15-2.51-.26-3.76-.07-1.64-.2-3.29-.39-5a63.92,63.92,0,0,1-.29-13.24,14,14,0,0,1,2-5.87A9.37,9.37,0,0,1,614,45.1a9.21,9.21,0,0,1,3.11-.62m-.26-11.87h0A21.3,21.3,0,0,0,609.82,34l-.23.09a21.35,21.35,0,0,0-10.35,8.77,25.88,25.88,0,0,0-3.65,10.79c0,.09,0,.18,0,.26a76.45,76.45,0,0,0,.33,15.62c.16,1.37.27,2.75.33,4.09l0,.45c.09,1.12.17,2.25.23,3.37.3,6.66.85,13.37,1.62,19.94a43.63,43.63,0,0,0,1.62,8.25,25.74,25.74,0,0,0,5.61,10c.21.24.44.47.67.69a21.08,21.08,0,0,0,15.17,6.13,22.84,22.84,0,0,0,9.69-2.51l.58-.31a24.09,24.09,0,0,0,10.3-11.18,25.26,25.26,0,0,0,7.51,9.52q.25.21.51.39a22.59,22.59,0,0,0,13.59,4.37,21,21,0,0,0,2.37-.19,24.47,24.47,0,0,0,13.17-6.07,26.22,26.22,0,0,0,6-7.58,26,26,0,0,0,5,7,21.6,21.6,0,0,0,15.76,6.28h.61a19.65,19.65,0,0,0,15.25-7.81A28.08,28.08,0,0,0,726.33,103a56.35,56.35,0,0,0,1-8.83c.35-5,.57-10.1.63-15.21a109.65,109.65,0,0,0-1-16.55,39.94,39.94,0,0,0-5.82-16A31.54,31.54,0,0,0,706.7,34.41l-.42-.17a43.11,43.11,0,0,0-16.45-2.64,30.71,30.71,0,0,0-18.14,5.93c-.29.22-.56.45-.83.69-.64.58-1.26,1.18-1.87,1.82a31.35,31.35,0,0,0-15.63-7.39,29.21,29.21,0,0,0-5.43-.4,29.89,29.89,0,0,0-14.58,4.28l-.23.14c-.69.42-1.35.87-2,1.34a18.77,18.77,0,0,0-8.77-4.8,21.2,21.2,0,0,0-5.47-.6Z"/><path class="cls-1" d="M367,123.76c-4.29.1-8.62,0-12.87-.19A98.31,98.31,0,0,1,341.17,122l-.08,0c-10.13-2.08-17.45-6.21-21.76-12.27a.71.71,0,0,0-.1-.14c-4.2-6.29-7.26-16.43,2-29.07l.12-.16a48,48,0,0,1,9.25-8.93c3.17-2.33,6.45-4.52,9.74-6.53l.07,0c3-1.77,5.84-3.63,8.45-5.51A30.33,30.33,0,0,0,354,54.71a19.54,19.54,0,0,0-1.89.54,37.55,37.55,0,0,1-5.94,1.45h-.09a43.65,43.65,0,0,1-5.12.43,34.42,34.42,0,0,1-10.18-1.24,30.24,30.24,0,0,1-8.42-4A22.2,22.2,0,0,1,315,43.77a1.19,1.19,0,0,0-.08-.16,16.73,16.73,0,0,1-.45-14.06c.05-.11.09-.21.14-.31a20.56,20.56,0,0,1,13-11.1A62.12,62.12,0,0,1,341.5,15.6h.13c.77-.06,1.53-.15,2.25-.26,7.87-1.09,16.64-1.88,26.11-2.35.93-.05,1.88-.08,2.8-.1a97.28,97.28,0,0,1,26.12,2.92l.15,0c15.27,4.31,19.47,12.92,20.3,19.38,0,.13,0,.25,0,.38A21.94,21.94,0,0,1,415,50.55a58.75,58.75,0,0,1-8.37,9.07l-.46.48-.28.27c-6.68,6.12-13.33,12-19.74,17.43q-.48.42-1.08.9c1.41,0,2.83,0,4.25,0l1.67,0c2.31,0,4.61,0,6.85.14h.09a54.73,54.73,0,0,1,12,2.47,27.15,27.15,0,0,1,12.52,8.32l.22.27a17.25,17.25,0,0,1,3.46,13.32l0,.13a19.31,19.31,0,0,1-8.53,12.86l-.12.09a34.66,34.66,0,0,1-13.68,5.23,83.23,83.23,0,0,1-11,1l-1,0c-2.93.12-6,.3-9.06.53C377.47,123.41,372.19,123.65,367,123.76Z"/><path class="cls-2" d="M372.93,18.81a91.15,91.15,0,0,1,24.52,2.74q14.7,4.15,16,14.43a16.1,16.1,0,0,1-3.27,11,52.16,52.16,0,0,1-7.71,8.32l-.66.69q-10,9.16-19.63,17.32c-.38.35-.88.75-1.49,1.22s-1.58,1.3-2.57,2.16a23.73,23.73,0,0,0-2.64,2.68,3.86,3.86,0,0,0-1.13,2.39c.12.51.81,1,2.06,1.56a21.07,21.07,0,0,0,6.19,1.21c2.25.12,4.54.16,6.84.11q.81,0,1.62-.06,3.21-.06,6.32.13a49,49,0,0,1,10.65,2.22,21.2,21.2,0,0,1,9.81,6.53,11.22,11.22,0,0,1,2.31,8.82,13.56,13.56,0,0,1-6.05,9,28.66,28.66,0,0,1-11.34,4.35,80.33,80.33,0,0,1-10.2,1h-1q-4.56.2-9.36.55-7.68.51-15.44.68-6.26.14-12.42-.19a91,91,0,0,1-12.11-1.46q-13-2.67-18.12-9.9Q317.27,96,326,84a41.73,41.73,0,0,1,8.1-7.83q4.58-3.35,9.32-6.24t8.91-5.82a36.35,36.35,0,0,0,7.27-7q2.63-3.61,1.3-6.45-1.32-2.34-5.12-2.25a20.49,20.49,0,0,0-5.63,1.14,30.38,30.38,0,0,1-5,1.2,36.08,36.08,0,0,1-4.43.37,28.32,28.32,0,0,1-8.42-1A23.93,23.93,0,0,1,325.64,47a16,16,0,0,1-5.37-6,10.78,10.78,0,0,1-.29-9.2,14.52,14.52,0,0,1,9.33-8,56.15,56.15,0,0,1,12.57-2.31H342c1-.08,1.89-.18,2.78-.32q11.53-1.61,25.54-2.29c.89-.05,1.77-.08,2.65-.1M372.66,7c-1,0-2,0-3,.1-9.65.48-18.59,1.28-26.59,2.4H343c-.57.09-1.16.16-1.78.21h-.1a68.65,68.65,0,0,0-15.22,2.77,26.41,26.41,0,0,0-16.63,14.22c-.1.21-.19.42-.28.63a22.51,22.51,0,0,0,.61,18.92c.06.11.11.22.17.32a27.82,27.82,0,0,0,9.27,10.29,35.88,35.88,0,0,0,10.09,4.78,38.67,38.67,0,0,0,3.93.89c-2,1.32-4,2.7-5.95,4.13a53.7,53.7,0,0,0-10.39,10l-.25.33c-11.93,16.21-6.48,29.44-2.18,35.87.06.1.13.19.19.28,5.21,7.33,13.76,12.26,25.41,14.65l.16,0a100.27,100.27,0,0,0,13.71,1.66c4.39.23,8.87.3,13.31.2,5.32-.11,10.69-.35,16-.7h.1c3-.22,5.93-.39,8.76-.51h1a93.23,93.23,0,0,0,11.74-1.09,40.44,40.44,0,0,0,16-6.13l.26-.17a25.43,25.43,0,0,0,11-16.71c0-.09,0-.19,0-.28a23,23,0,0,0-4.6-17.81c-.15-.19-.29-.37-.45-.55a33,33,0,0,0-15.22-10.1,63.65,63.65,0,0,0-11.08-2.5c3.08-2.72,6.19-5.52,9.3-8.37.19-.18.38-.36.56-.55l.27-.28a64.63,64.63,0,0,0,9-9.8,28.06,28.06,0,0,0,5.62-18.89c0-.26,0-.52-.07-.77a25.86,25.86,0,0,0-8.51-16c-4.07-3.67-9.33-6.38-16.07-8.28l-.3-.08A103.34,103.34,0,0,0,372.66,7Z"/><path class="cls-1" d="M566.78,121.49A47.33,47.33,0,0,1,534,109.31a47.05,47.05,0,0,1,29.42-81.8l1.31,0c8-.18,14.92,1,21,3.51A23.68,23.68,0,0,1,599.63,56.3c-.17,1.16-.37,2.32-.57,3.48l-.27,1.57a4.1,4.1,0,0,1-.1.48,26.2,26.2,0,0,0,1.87,18.64c5.36,10.68,4.25,25.38-10.3,34.14a47.8,47.8,0,0,1-23.47,6.88Zm-3.47-48.1c-2.11,0-5.71,1.91-6.34,6.7-.4,3.07,1.22,5.21,4.34,5.73a8.56,8.56,0,0,0,1.32.1,4.48,4.48,0,0,0,4.65-3.87c.46-2.71.64-7.42-3.22-8.58A3,3,0,0,0,563.31,73.39Z"/><path class="cls-2" d="M564.89,33.4a45.14,45.14,0,0,1,18.58,3.05c7.28,3,11.5,11.14,10.3,18.95-.26,1.66-.55,3.32-.83,5a31.89,31.89,0,0,0,2.32,22.75c4.44,8.86,3,19.74-8.06,26.39a41.27,41.27,0,0,1-62.73-33.46c-1-22.18,17-41.76,39.21-42.62l1.21,0m-2.13,58.45A10.42,10.42,0,0,0,573.14,83c1-6.08-.35-13.14-7.38-15.24a8.34,8.34,0,0,0-2.58-.33c-5,.11-11.08,4.14-12.09,11.86a10.7,10.7,0,0,0,9.24,12.35,12.66,12.66,0,0,0,2.43.18m1.87-70.31-1.41,0a53.23,53.23,0,0,0-50.6,55,52.64,52.64,0,0,0,17.44,37.12,53.2,53.2,0,0,0,36.86,13.7,53.77,53.77,0,0,0,26.4-7.73c7.91-4.75,13.17-11.54,15.23-19.61a32.14,32.14,0,0,0-2.68-22.27,20.07,20.07,0,0,1-1.42-14.52c.08-.32.14-.64.2-1,.08-.51.17-1,.26-1.53.19-1.16.4-2.37.59-3.6,2-13.28-5.3-26.61-17.46-31.7-6.86-2.86-14.52-4.16-23.41-4Z"/><path class="cls-1" d="M476,127.4a61.91,61.91,0,0,1-42.71-16.11,60.34,60.34,0,0,1-2.82-86.37A59.88,59.88,0,0,1,472.71,6c11.24-.25,20.67,1.38,28.86,5,12,5.26,19.05,18.69,16.78,31.94-.27,1.56-.56,3.11-.84,4.62l-.39,2.08c0,.16-.07.32-.11.48a36.8,36.8,0,0,0,2.19,26.27c6.51,13.55,4.8,32-13.71,42.72A61,61,0,0,1,476,127.4Zm-6.33-59.3c-3.46.08-9.37,3-10.49,10.53-.76,5.13,2.1,9.06,7.29,10a11.59,11.59,0,0,0,2.32.19,8,8,0,0,0,8.09-6.7c.63-3.43,1.37-11.65-5.48-13.82A5.42,5.42,0,0,0,469.69,68.1Z"/><path class="cls-2" d="M472.84,11.89h0c9-.2,18,.82,26.32,4.47,9.65,4.23,15.09,15.11,13.31,25.5-.38,2.21-.81,4.42-1.22,6.62a42.64,42.64,0,0,0,2.57,30.4c5.73,11.92,3.57,26.39-11.34,35a55.47,55.47,0,0,1-26.62,7.57c-28.73.63-55.38-21.57-56.28-53.62-.83-29.61,23.57-55.3,53.23-56m-3.9,82.88a13.9,13.9,0,0,0,13.8-11.56c1.49-8.1-.17-17.57-9.52-20.55a11.49,11.49,0,0,0-3.66-.49c-6.65.15-14.72,5.39-16.23,15.59C452.11,86,457,92.93,465.42,94.48a17,17,0,0,0,3.52.29M472.61,0h0A64.24,64.24,0,0,0,446.94,6,67.91,67.91,0,0,0,412.39,42.3a64.33,64.33,0,0,0-4.65,25.88,66.24,66.24,0,0,0,21.57,47.49,66.94,66.94,0,0,0,79.15,8.5c9.73-5.63,16.27-13.73,18.91-23.42a38.91,38.91,0,0,0-2.82-27,30.62,30.62,0,0,1-1.81-22.15c.08-.32.15-.63.21-1l.39-2.07c.29-1.52.58-3.1.86-4.71,2.73-15.9-5.79-32-20.25-38.37C495,1.55,484.7-.24,472.61,0Zm-3.93,82.88a5.39,5.39,0,0,1-1.11-.1c-2.07-.38-2.79-1.34-2.5-3.31.66-4.44,3.88-5.44,4.74-5.46a1.46,1.46,0,0,1,1.11,1.11,12.13,12.13,0,0,1,.15,5.91c-.1.54-.34,1.8-2.39,1.85Z"/><path class="cls-1" d="M134.92,53.83a13.29,13.29,0,0,1-4-.54,5.44,5.44,0,0,1-.57-.19c-4.05-1.63-6.49-4.83-6.67-8.77a15.92,15.92,0,0,1,1.57-7.6,72.32,72.32,0,0,1,7-12.25l1.09-1.63A57.14,57.14,0,0,1,137,17.79a21.58,21.58,0,0,1,5.88-5l.19-.1a15.81,15.81,0,0,1,7-1.88,14.91,14.91,0,0,1,4.09.48A15.88,15.88,0,0,1,163,17.18a15.54,15.54,0,0,1,3.18,10.56l0,.34a15.46,15.46,0,0,1-3.42,8.36,25.48,25.48,0,0,1-5.45,4.9c-2.72,1.92-5.48,3.83-8.21,5.69l-.05,0-3.51,2.36-.08,0A31.24,31.24,0,0,1,140,52.66,12.81,12.81,0,0,1,134.92,53.83Z"/><path class="cls-2" d="M150.29,16.78a8.92,8.92,0,0,1,2.45.29,10.15,10.15,0,0,1,5.58,3.72,9.74,9.74,0,0,1,2,6.65,9.6,9.6,0,0,1-2.09,5.22,19.73,19.73,0,0,1-4.25,3.8q-4.1,2.88-8.19,5.67l-3.54,2.38a.6.6,0,0,0-.23.17,25.44,25.44,0,0,1-4.45,2.58,7,7,0,0,1-2.73.64,7.68,7.68,0,0,1-2.25-.31c-1.9-.76-2.88-1.94-3-3.54a10.21,10.21,0,0,1,1-4.85,68.3,68.3,0,0,1,6.45-11.37l1.13-1.68a53.56,53.56,0,0,1,3.4-4.57A15.51,15.51,0,0,1,145.85,18a10,10,0,0,1,4.44-1.21M150,4.91a21.94,21.94,0,0,0-9.66,2.56l-.38.21A27.49,27.49,0,0,0,132.47,14a65.31,65.31,0,0,0-4.13,5.55l-1.06,1.57a80,80,0,0,0-7.45,13.14,21.82,21.82,0,0,0-2.1,10.35c.3,6.27,4.18,11.49,10.38,14,.38.15.76.28,1.15.4a19.14,19.14,0,0,0,5.79.76,18.68,18.68,0,0,0,7.39-1.7,37.43,37.43,0,0,0,6.44-3.74L152.34,52l.09-.06c2.74-1.87,5.51-3.79,8.25-5.71a32.18,32.18,0,0,0,6.64-6,21.38,21.38,0,0,0,4.75-11.5c0-.23,0-.45.06-.68a21.65,21.65,0,0,0-4.4-14.48,22,22,0,0,0-12-8A20.88,20.88,0,0,0,150,4.91Z"/><path class="cls-1" d="M30.93,134.36c-.85,0-1.72,0-2.57,0a28.37,28.37,0,0,1-7.25-1.08l-.38-.13A16,16,0,0,1,10.41,122.4a48.53,48.53,0,0,1-1.95-11.7l-.16-2.33c-.78-9-1.25-18.14-1.41-27.18-.18-6.31-.45-12.66-.81-18.88A40.72,40.72,0,0,1,6.23,54a15.81,15.81,0,0,1,4.9-9.75l.25-.22a18.75,18.75,0,0,1,8.38-4.11,55.24,55.24,0,0,1,7.21-1l.33,0h.29c2.29-.22,4.6-.36,6.87-.41a90.63,90.63,0,0,1,27,3.53l.21.06A46.13,46.13,0,0,1,87.26,61.79c5.94,9.52,8.12,20.39,6.5,32.33a.59.59,0,0,0,0,.14,46.23,46.23,0,0,1-15.07,27.86l-.17.15a44.62,44.62,0,0,1-14.37,8,66.63,66.63,0,0,1-15.29,3.16c-2.82.26-5.71.42-8.53.48-1.58,0-3.18.11-4.75.22h-.27l-.74,0C33.36,134.27,32.14,134.33,30.93,134.36ZM48.4,82.06a7.43,7.43,0,0,0-6.61,5c-1.16,2.87-.13,5.34,2.76,6.63a6.25,6.25,0,0,0,2.71.58,4.35,4.35,0,0,0,4-2.73c1.11-2.51,2.47-7-1-9.11A3.75,3.75,0,0,0,48.4,82.06Z"/><path class="cls-2" d="M34.6,44.34a84.39,84.39,0,0,1,25.26,3.3A40.11,40.11,0,0,1,82.22,64.93Q90,77.46,87.88,93.32A40.26,40.26,0,0,1,74.72,117.7a38.42,38.42,0,0,1-12.47,7,60.25,60.25,0,0,1-13.92,2.88q-4.09.38-8.15.46c-1.68,0-3.35.11-5,.23l-.91,0c-1.14.09-2.29.15-3.46.18-.77,0-1.55,0-2.33,0a21.7,21.7,0,0,1-5.7-.84,10.09,10.09,0,0,1-6.66-6.88,42.76,42.76,0,0,1-1.72-10.35c-.05-.83-.11-1.65-.17-2.45q-1.14-13.39-1.39-26.86-.27-9.64-.83-19.16a35.4,35.4,0,0,1,.13-7.2,10,10,0,0,1,3.12-6.18A12.86,12.86,0,0,1,21,45.7a50.14,50.14,0,0,1,6.43-.94h.51q3.35-.33,6.66-.41m12.79,55.88A10.27,10.27,0,0,0,56.7,94c2.5-5.62,2.95-12.8-3.32-16.6a9.52,9.52,0,0,0-5.11-1.23,13.34,13.34,0,0,0-12,8.72,10.7,10.7,0,0,0,5.86,14.27,12.33,12.33,0,0,0,5.25,1.1M34.33,32.48c-2.35.05-4.73.19-7.09.42h-.07c-.22,0-.43,0-.65,0a60.18,60.18,0,0,0-8,1.17,24.6,24.6,0,0,0-11,5.4c-.17.14-.33.29-.49.45A21.86,21.86,0,0,0,.34,53.28a46.64,46.64,0,0,0-.18,9.45c.35,6.14.62,12.39.79,18.6.17,9.15.65,18.4,1.43,27.5.05.72.1,1.45.15,2.2a54.73,54.73,0,0,0,2.19,13.06,22,22,0,0,0,14,14.65c.26.09.51.18.77.25a33.61,33.61,0,0,0,8.79,1.31c.93,0,1.87,0,2.8,0,1.26,0,2.54-.09,3.79-.19h.57l.54,0c1.49-.1,3-.17,4.48-.2,3-.07,6-.24,9-.51A72.59,72.59,0,0,0,66,135.92a50.26,50.26,0,0,0,16.29-9.08l.34-.29a52.06,52.06,0,0,0,17-31.36,2.51,2.51,0,0,1,0-.27c1.81-13.34-.66-25.55-7.35-36.27A51.9,51.9,0,0,0,63.55,36.36l-.41-.13a96.84,96.84,0,0,0-28.81-3.75Z"/><path class="cls-1" d="M147.75,133h-1.06a13.46,13.46,0,0,1-9.43-4.15c-.14-.15-.27-.3-.4-.46a13.59,13.59,0,0,1-2.15-3.88,22.67,22.67,0,0,0-2.21,1.82l-.21.19a25.55,25.55,0,0,1-16.2,6.42h-.41a22.35,22.35,0,0,1-16.36-6.38,3.44,3.44,0,0,1-.27-.27c-5-5.35-7.17-11.73-6.33-18.46a26.7,26.7,0,0,1,8.81-16.66l.21-.19.49-.39a17.38,17.38,0,0,1-4.86-1.85l-.3-.17a12.79,12.79,0,0,1-6.3-10.68,15.25,15.25,0,0,1,4.11-10.67l.2-.21a29.09,29.09,0,0,1,9.48-6.31,67.93,67.93,0,0,1,9.41-3.2,59.41,59.41,0,0,1,13.78-2.1h.62a44.29,44.29,0,0,1,13.88,1.87A32.12,32.12,0,0,1,155.39,65l.08.09a32.33,32.33,0,0,1,7.73,12.28,52.64,52.64,0,0,1,2.71,13.24,114.79,114.79,0,0,1,.25,12.54,78.82,78.82,0,0,1-.89,10.88,29.1,29.1,0,0,1-4.6,12.34c-2,2.92-5.84,6.43-12.92,6.59Zm-23-26.93a2.33,2.33,0,0,0-2.06,1.7c-.23.57-.21.88.54,1.21a1.65,1.65,0,0,0,.71.17c.23,0,.35-.06.49-.36a4.23,4.23,0,0,0,.49-2.66h0l-.07-.06Z"/><path class="cls-2" d="M128.5,61.33a38.47,38.47,0,0,1,12,1.62,26.1,26.1,0,0,1,10.73,6.35,26.5,26.5,0,0,1,6.33,10A46.13,46.13,0,0,1,160,91.09a109.61,109.61,0,0,1,.24,12,75,75,0,0,1-.83,10.16,23.09,23.09,0,0,1-3.64,9.84q-2.62,3.87-8.14,4h-.79a6.63,6.63,0,0,1-6.74-5.27,9.65,9.65,0,0,0-.79-2.15,3.62,3.62,0,0,0-3.14-2l-.33,0a8.83,8.83,0,0,0-4.07,1.69,30.39,30.39,0,0,0-3.37,2.73,19.68,19.68,0,0,1-12.53,5h-.31a16.6,16.6,0,0,1-12.16-4.76q-5.73-6.15-4.78-13.68a20.83,20.83,0,0,1,6.93-13,19.48,19.48,0,0,1,12.38-4.61h.36c1,0,2,.07,3,.16q1.83.14,3.63.09a8.24,8.24,0,0,0,3.27-.7,3.72,3.72,0,0,0,2.27-3.1,5.73,5.73,0,0,0-1.08-3.72,5.53,5.53,0,0,0-3.22-2.27,14.65,14.65,0,0,0-3-.22,16.14,16.14,0,0,0-2.83.32,54.65,54.65,0,0,0-5.88,1.59,35.43,35.43,0,0,1-7.29,1.84,9.64,9.64,0,0,1-1.3.11,11,11,0,0,1-5.67-1.46,6.84,6.84,0,0,1-3.55-5.8,9.3,9.3,0,0,1,2.59-6.57,23.18,23.18,0,0,1,7.57-5,60.36,60.36,0,0,1,8.64-2.93A53,53,0,0,1,128,61.34h.54m-4.38,53.75a6.35,6.35,0,0,0,5.78-3.88c1.55-3.49,1.83-7.94-2.06-10.3a5.92,5.92,0,0,0-3.17-.76,8.29,8.29,0,0,0-7.44,5.41,6.64,6.64,0,0,0,3.63,8.85,7.73,7.73,0,0,0,3.26.68m4.12-65.62-.7,0a65.34,65.34,0,0,0-15.1,2.3,73.29,73.29,0,0,0-10.18,3.46,35,35,0,0,0-11.39,7.6l-.4.42A21.09,21.09,0,0,0,84.83,78a18.35,18.35,0,0,0,7.59,14.54,32,32,0,0,0-5.59,14.53c-1.07,8.53,1.66,16.57,7.88,23.25.17.18.35.36.53.53a28.47,28.47,0,0,0,20.57,8h.5a31.26,31.26,0,0,0,17-5.6,19.21,19.21,0,0,0,13.17,5.65h1.43c7.49-.17,13.78-3.43,17.7-9.19a34.89,34.89,0,0,0,5.57-14.83,89.36,89.36,0,0,0,.95-11.6,125.11,125.11,0,0,0-.27-13.09,58.51,58.51,0,0,0-3-14.75A38.42,38.42,0,0,0,159.68,61l-.16-.17A38,38,0,0,0,144,51.59a50.37,50.37,0,0,0-15.73-2.13Z"/><path class="cls-1" d="M240,130.07a45,45,0,0,1-45.8-39.67,45.15,45.15,0,0,1,39.18-49.75c2.17-.25,4.19-.39,6.18-.44a44.89,44.89,0,0,1,15.29,2.12,22.79,22.79,0,0,1,15.17,23.25c-.09,1.11-.19,2.23-.3,3.35l-.13,1.49c0,.16,0,.32-.07.48a24.2,24.2,0,0,0,3.08,17.27c5.92,9.84,5.94,24-7.35,33.43A45.19,45.19,0,0,1,240,130.07Zm3.79-39.51c-1.61,0-5.22,1.73-5.48,6.55-.15,2.76,1.44,4.55,4.26,4.8l.74,0c1.94,0,4.09-1.06,4.33-3.77.23-2.5.08-6.82-3.44-7.58A1.4,1.4,0,0,0,243.83,90.56Z"/><path class="cls-2" d="M239.73,46.15A39.25,39.25,0,0,1,253,48a16.84,16.84,0,0,1,11.12,17.16c-.12,1.6-.28,3.18-.42,4.77a30.27,30.27,0,0,0,3.84,21.34c4.84,8.06,4.27,18.44-5.7,25.54a39.13,39.13,0,0,1-61.73-27.09c-2.56-20.9,13-40.71,34-43.13,1.88-.22,3.75-.36,5.63-.4m3.75,61.72A10,10,0,0,0,253.6,98.7c.51-5.83-1.29-12.43-8.1-13.91a7.59,7.59,0,0,0-1.8-.17c-4.87.11-10.86,4.42-11.28,12.17a10.18,10.18,0,0,0,9.67,11,13.1,13.1,0,0,0,1.39.05m-4-73.59c-2.17,0-4.37.21-6.72.48a51.08,51.08,0,0,0-44.39,56.36,50.69,50.69,0,0,0,17.93,33.06,51.05,51.05,0,0,0,62.45,2.26c7.27-5.17,11.84-12.09,13.23-20a31.08,31.08,0,0,0-4.23-21.28,18.5,18.5,0,0,1-2.32-13.21c.06-.32.1-.64.13-1,0-.49.09-1,.13-1.47.11-1.11.21-2.26.3-3.44A28.75,28.75,0,0,0,256.75,36.7a50.48,50.48,0,0,0-17.29-2.42Z"/><polygon class="cls-2" points="406.35 63.57 397.31 74.93 409.33 77.95 413.11 69.05 406.35 63.57"/><polyline class="cls-2" points="465.98 69.47 459.84 81.87 470.84 88.78 475.32 81.52 472.42 70.61 465.74 68.55"/></g></g></svg>