<?xml version="1.0" encoding="utf-8"?>
<!-- Generator: Adobe Illustrator 24.2.1, SVG Export Plug-In . SVG Version: 6.00 Build 0)  -->
<svg version="1.1" id="Camada_1" xmlns="http://www.w3.org/2000/svg" xmlns:xlink="http://www.w3.org/1999/xlink" x="0px" y="0px"
	 viewBox="0 0 80 80" style="enable-background:new 0 0 80 80;" xml:space="preserve">
<style type="text/css">
	.st0{fill:url(#SVGID_1_);}
	.st1{fill:#FFFFFF;}
</style>
<linearGradient id="SVGID_1_" gradientUnits="userSpaceOnUse" x1="13.7988" y1="66.4859" x2="64.2653" y2="16.0195" gradientTransform="matrix(1 0 0 -1 0 82.2)">
	<stop  offset="0" style="stop-color:#FF4C3C"/>
	<stop  offset="0.9565" style="stop-color:#EF053E"/>
	<stop  offset="1" style="stop-color:#EE023E"/>
</linearGradient>
<path class="st0" d="M72.5,30.1c2.6-4.2-2.6-10.3-7.3-7.3l-0.1,0.1c0.3-0.3,0.6-0.5,0.8-0.8c4.4-4.1-1.3-11.5-6.5-8.4
	c-3.2,2-6.5,4.1-9.6,6.2c2.6-2.6,5.2-5,8-7.5c4.6-4.2-1.2-11.1-6.5-8.4c-1.2,0.7-2.5,1.3-3.6,2.1c0.8-3.9-3.5-7.6-7.9-5.6
	C28.1,6,17.3,13.2,7.7,21.8c-4.2,3.7,0.1,9.4,4.6,8.9C9,34.6,5.9,38.6,2.9,42.6c-3,4.1,2,8.8,6.1,7.8c-1,1.2-1.9,2.5-2.8,3.7
	c-1.5,2.1-0.6,5.4,1.3,6.8c2.2,1.6,4.9,1.4,6.9-0.4c0.6-0.5,1.1-1,1.7-1.5c-1,1.1-1.9,2.2-2.9,3.3c-1.8,2.2-2.2,5.3,0,7.5
	c1.7,1.7,4.6,2,6.6,0.8c0.3,1.3,1,2.6,2,3.3c2.1,1.5,4.3,1.3,6.3,0.1c-0.2,3.9,4.2,7.9,7.9,5c2.2-1.6,4.4-3.3,6.6-4.9
	c1.4,2.8,5.3,4.3,8.4,1.5c4.8-4.4,10-8.4,15.5-11.9c2.9-1.8,2.9-4.9,1.7-7.2l5.3-5.9c1.8-2,2.1-4.8,0.4-6.9c-0.3-0.4-0.8-0.8-1.1-1
	c1.1-1,2.4-2.2,3.5-3.2C80.2,35.8,76.8,30,72.5,30.1z"/>
<g id="Camada_2_1_">
	<g id="Camada_1-2">
		<path class="st1" d="M51.8,22c0.2,0.2,0.5,0.4,0.7,0.7c1.2,1.8,2.2,3.7,3,5.6c0.8,1.9,0.7,3.6-0.7,5.1c0.4,0.3,0.8,0.6,1.1,1
			c1.7,1.5,3.1,3.2,3.8,5.4c0.5,1.5,0.6,3.1,0.1,4.6c-0.5,1.6-2.1,2.8-3.8,2.8h-0.9v0.5c0,3.6-0.1,7.2-0.4,10.8
			c-0.2,2.2-0.5,4.3-1.1,6.4c-0.2,0.5-0.4,1-0.7,1.4c-0.7,1.1-1.9,1-2.5,0s-0.9-2-1.1-3.1c-0.6-3.3-1-6.7-1.1-10.1
			c-0.1-1.3-0.1-2.6-0.1-3.9c0-0.1,0-0.2,0-0.3c-1,0.8-1.9,1.7-2.5,2.8c-0.8,1.6-1.2,3.4-1,5.2c0.3,3.4-0.9,6.2-3.8,8.1
			c-2.4,1.7-5.4,2-8.1,0.9C25.5,63.2,21.3,58,20,50.5c0-0.2,0-0.3-0.1-0.5c-0.1-0.5,0.2-1,0.7-1.1l0,0c0.5-0.1,0.9,0.3,1,0.7
			c0,0,0,0,0,0.1c0.2,1.6,0.6,3.1,1.2,4.6c2.1,4.9,5.6,8.3,10.7,10c3.4,1.3,7.2-0.3,8.7-3.6c0.5-1.2,0.6-2.5,0.5-3.7
			c-0.3-4.3,1.3-7.7,5-10.1c0.2-0.1,0.3-0.3,0.3-0.5c0.2-2.5,0.3-5.1,0.5-7.6c0.1-1.5,0.5-2.9,0.7-4.3c0.1-0.2,0-0.5-0.2-0.6
			c-0.8-0.5-1.4-1.4-1.7-2.3c0-0.2-0.2-0.3-0.3-0.4c-4.6-2-9.3-2.4-14-0.6c-5.6,2.2-9.2,6.2-10.9,12c0,0.1-0.1,0.2-0.1,0.3
			c-0.1,0.5-0.6,0.8-1.1,0.6l0,0c-0.5-0.1-0.7-0.6-0.6-1c0,0,0,0,0-0.1c0.2-0.9,0.5-1.7,0.8-2.6c2.9-6.7,7.9-10.7,15.1-12
			c3.5-0.5,7.2-0.1,10.5,1.2l0.5,0.2l0.2-0.5c0.9-2.3,2-4.5,3.4-6.5c0.1-0.2,0.3-0.3,0.4-0.4h0.6V22z M53.1,43.6h-3.2
			c0,0.2-0.1,0.5-0.1,0.8c0,3-0.1,6,0,9c0,3.1,0.4,6.2,0.9,9.3c0.2,0.8,0.4,1.5,0.6,2.3h0.2c0.1-0.2,0.2-0.4,0.2-0.6
			c0.3-1.4,0.7-2.9,0.9-4.3c0.5-4.4,0.7-8.9,0.6-13.4C53.2,45.6,53.2,44.6,53.1,43.6z M51.5,24.6c-1,1.7-2,3.4-2.5,5.3
			c-0.1,0.4-0.1,0.9,0,1.3c0.4,1.4,1.8,2.2,3.2,1.8c0,0,0,0,0.1,0c1.4-0.4,2.1-1.8,1.7-3.2v-0.1C53.3,27.9,52.5,26.2,51.5,24.6z
			 M54,35.2c0.6,3.4,0.9,6.8,1,10.2h0.8c1.1,0,2-0.7,2.3-1.7c0.3-0.8,0.3-1.8,0.1-2.6C57.5,38.6,55.9,36.8,54,35.2z M53,41.8
			c-0.1-2.4-0.5-4.7-1-7h-1.1c-0.3,2.3-0.6,4.6-1,7H53z"/>
		<path class="st1" d="M36.5,35.7c0-1.9,1.6-3.5,3.5-3.5s3.5,1.6,3.5,3.5s-1.6,3.5-3.5,3.5C38.1,39.3,36.5,37.7,36.5,35.7
			C36.5,35.8,36.5,35.8,36.5,35.7z M41.8,35.7c0-1-0.8-1.8-1.8-1.8s-1.8,0.8-1.8,1.8s0.8,1.8,1.8,1.8C41,37.5,41.8,36.7,41.8,35.7
			L41.8,35.7z"/>
		<path class="st1" d="M30.3,43.7c-1.9,0-3.5-1.6-3.5-3.6c0-1.9,1.6-3.5,3.6-3.5c1.9,0,3.5,1.6,3.5,3.5
			C33.9,42.1,32.3,43.7,30.3,43.7C30.4,43.7,30.4,43.7,30.3,43.7z M30.3,41.9c1,0,1.8-0.8,1.8-1.8s-0.8-1.8-1.8-1.8
			s-1.8,0.8-1.8,1.8l0,0C28.6,41.2,29.4,41.9,30.3,41.9z"/>
		<path class="st1" d="M27.7,54.3c-1.9,0-3.5-1.6-3.5-3.5s1.6-3.5,3.5-3.5s3.5,1.6,3.5,3.5C31.2,52.7,29.7,54.3,27.7,54.3L27.7,54.3
			z M27.7,52.5c1,0,1.8-0.8,1.8-1.8s-0.8-1.8-1.8-1.8s-1.8,0.8-1.8,1.8l0,0C25.9,51.7,26.7,52.5,27.7,52.5L27.7,52.5L27.7,52.5z"/>
		<path class="st1" d="M32.1,57.8c0-1.9,1.6-3.5,3.5-3.5s3.5,1.6,3.5,3.5c0,1.9-1.6,3.5-3.5,3.5S32.1,59.7,32.1,57.8L32.1,57.8z
			 M35.6,59.6c1,0,1.7-0.8,1.7-1.8s-0.8-1.7-1.8-1.7s-1.7,0.8-1.7,1.7C33.9,58.8,34.6,59.6,35.6,59.6L35.6,59.6L35.6,59.6z"/>
		<path class="st1" d="M21.5,46.3c0,0.5-0.4,0.9-0.9,0.9l0,0c-0.5,0-0.8-0.5-0.8-1c0-0.4,0.4-0.8,0.8-0.8
			C21.2,45.5,21.5,45.9,21.5,46.3z"/>
	</g>
</g>
</svg>
