<svg xmlns="http://www.w3.org/2000/svg" viewBox="0 0 826.04 267.25"><defs><style>.cls-1{fill:#da2619;}.cls-2{fill:#fff;}.cls-3{fill:#2486c8;}</style></defs><g id="Camada_2" data-name="Camada 2"><g id="Camada_1-2" data-name="Camada 1"><path class="cls-1" d="M100.75,38l-68.49,84H92.5a13.72,13.72,0,0,1,0,27.43H22.56c-18.36,0-29.29-18.36-17.94-33l68.28-84H18A13.72,13.72,0,1,1,18,5H82.59C101.16,5,112.09,23.31,100.75,38Z"/><path class="cls-1" d="M225.34,96.13c0,36.93-32,54.67-55.49,54.67-23.72,0-55.49-17.74-55.49-54.67,0-36.72,31.77-55.28,55.49-55.28C193.37,40.85,225.34,59.41,225.34,96.13Zm-81.27,0c0,17.33,12,28.47,25.78,28.47,13.62,0,25.58-11.14,25.58-28.47,0-17.95-12-29.09-25.58-29.09C156,67,144.07,78.18,144.07,96.13Z"/><path class="cls-1" d="M350.77,96.13c0,36.93-32,54.67-55.5,54.67-23.72,0-55.49-17.74-55.49-54.67,0-36.72,31.77-55.28,55.49-55.28C318.79,40.85,350.77,59.41,350.77,96.13Zm-81.28,0c0,17.33,12,28.47,25.78,28.47,13.62,0,25.58-11.14,25.58-28.47,0-17.95-12-29.09-25.58-29.09C281.45,67,269.49,78.18,269.49,96.13Z"/><path class="cls-1" d="M545.71,91.18v44.35a15.06,15.06,0,0,1-30.12,0V91.18c0-17.12-8.46-24.55-20-24.55-17.53,0-22.69,17.33-23.1,21.25v47.65a15.06,15.06,0,0,1-30.12,0V91.18c0-17.12-8.46-24.55-19.81-24.55a21.38,21.38,0,0,0-18.05,9.16,27.26,27.26,0,0,0-5.05,16v43.1c0,8.34-6.82,15.5-15.16,15.45a15,15,0,0,1-15-14.86V56.73a15.06,15.06,0,1,1,30.12,0V65c.82-7.63,12.58-23.93,34.45-23.93,15.26,0,28.67,7.63,34.86,25.38,5.78-12.59,18.77-25.38,38.17-25.38C528,41.05,545.71,55.29,545.71,91.18Z"/><path class="cls-1" d="M570.46,14.85c0-8,7-14.85,15.26-14.85S601,6.81,601,14.85s-7,14.86-15.27,14.86S570.46,22.9,570.46,14.85Zm30.32,41.88v78.6a15.06,15.06,0,1,1-30.12,0V56.73a15.06,15.06,0,1,1,30.12,0Z"/><path class="cls-1" d="M728.27,91c0,12-6.4,16.09-18.78,16.09L653,106.24C655.65,119,665.76,126,680,126c6.81,0,8.87-1,14.86-3.09,4.12-1.65,7.22-3.51,11.14-3.51,6.19,0,10.1,4.54,10.1,10.32,0,3.71-1.44,7.84-7.22,12.37-7.22,4.75-17.12,8.26-30.11,8.26-27.85,0-57.15-16.71-57.15-54.26s31.15-55.28,54.67-55.28S728.27,59.62,728.27,91ZM653,86h45.59C696.5,72.41,687,67,676.28,67S654.83,72.41,653,86Z"/><path class="cls-1" d="M818.2,55.49a15.29,15.29,0,0,1,3.72,9.7c0,7.42-4.95,11.34-11.56,11.34-4.33,0-8.45-1.65-12.37-6-4.13-4.33-8.25-6-12.79-6-6.6,0-10.73,3.3-10.73,8,0,2.07.41,6.19,9.08,8.67l12.58,3.51C811.81,89.53,826,97.37,826,116.14c0,23.31-21.45,34.25-42.91,34.25-19,0-29.29-8-35.06-14-1.24-1.24-6.4-7.22-6.4-14.24,0-5,3.09-11.34,11.55-11.34,6,0,9.49,3.71,12.17,6.81,6.19,7,12,8.45,17.74,8.45,9.08,0,13-4.12,13-8.25,0-2.06-.82-6.6-10.52-9.49L774.88,105C753.84,99,745,87.67,745,72.82c0-21.66,19.8-32,39.2-32C797.78,40.85,811.4,46,818.2,55.49Z"/><path class="cls-2" d="M747.24,243.19a15.89,15.89,0,0,1-11.57-4.53,20.7,20.7,0,0,1-5.33-9.5,32.09,32.09,0,0,1-1.05-9.75.91.91,0,0,0,0-.17c.16-2,.4-4.08.72-6.19,0,0,0-.07,0-.11a44.7,44.7,0,0,0,.63-9.32,7.85,7.85,0,0,0-2.25-5.26,4,4,0,0,0-2.6-1.39h-.06a3.86,3.86,0,0,0-2.69,1.26,6.75,6.75,0,0,0-1.79,3.77,19.64,19.64,0,0,0,.05,4.47,51.57,51.57,0,0,0,1,5.34,65,65,0,0,1,1.31,8.08,25.07,25.07,0,0,1-1,9.69l0,.08a20.32,20.32,0,0,1-6,9.28,18.69,18.69,0,0,1-10,4.64,16.21,16.21,0,0,1-1.7.13,16.4,16.4,0,0,1-10-3.27l-.25-.19a19.06,19.06,0,0,1-6.62-9.51,30,30,0,0,1-1.19-10,74.92,74.92,0,0,1,.88-8.65c0-.46.11-.92.19-1.36a36.63,36.63,0,0,0,.25-7.33,9.3,9.3,0,0,0-1.51-4.95,2.53,2.53,0,0,0-1.3-.2l-.72,0a4.46,4.46,0,0,0-3,1.71,11.06,11.06,0,0,0-1.89,4.95,27.82,27.82,0,0,0-.21,6.78s.15,1.82.15,1.82a80.93,80.93,0,0,1,.44,8.89,27,27,0,0,1-2,10.12,17.82,17.82,0,0,1-8,8.83c-.1.05-.19.11-.29.15a16.75,16.75,0,0,1-7.17,1.89,15.31,15.31,0,0,1-11-4.51l-.34-.34a19.89,19.89,0,0,1-4.33-7.69,38.37,38.37,0,0,1-1.41-7.2c-.76-6.47-1.29-13.07-1.59-19.62-.06-1.15-.15-2.36-.24-3.55a1.64,1.64,0,0,1,0-.22c-.07-1.48-.19-3-.36-4.53a69.74,69.74,0,0,1-.31-14.42.53.53,0,0,1,0-.13,20,20,0,0,1,2.81-8.33,15.23,15.23,0,0,1,7.51-6.35l.11,0a15.19,15.19,0,0,1,5.08-1,15.63,15.63,0,0,1,4,.43,13,13,0,0,1,8,5.71c.09.15.18.29.26.45a21.52,21.52,0,0,1,.91,2,24,24,0,0,1,6.11-5.38l.12-.07a23.94,23.94,0,0,1,11.71-3.46,23.33,23.33,0,0,1,4.32.31,25.89,25.89,0,0,1,14.09,7.29l.19.19a9.29,9.29,0,0,0,2.47,2h.08l.21,0a6.89,6.89,0,0,0,2.3-2l.18-.23a30.4,30.4,0,0,1,2.93-3.06,3.47,3.47,0,0,1,.42-.34,24.81,24.81,0,0,1,14.71-4.75,37.11,37.11,0,0,1,14.18,2.24l.21.09a25.62,25.62,0,0,1,11.79,9.82,33.79,33.79,0,0,1,4.94,13.57,104.69,104.69,0,0,1,1,15.67c-.06,5-.27,10.08-.62,15a49.54,49.54,0,0,1-1,8,21.91,21.91,0,0,1-3.84,8.94c-1.69,2.31-4.94,5.12-10.75,5.41h-.31Z"/><path class="cls-3" d="M658.77,171.42a9.13,9.13,0,0,1,2.42.27,7,7,0,0,1,4.41,3.16,19.64,19.64,0,0,1,1.09,2.54,12.2,12.2,0,0,0,2,4.15,2.25,2.25,0,0,0,1.94,1,4.82,4.82,0,0,0,2.07-.61,8.87,8.87,0,0,0,2.68-2.74l.72-1a18.06,18.06,0,0,1,13.76-7.09,17.48,17.48,0,0,1,3.21.24A20,20,0,0,1,704,177a15,15,0,0,0,4.06,3.17,6,6,0,0,0,3,.67,7.82,7.82,0,0,0,2.07-.33,12.6,12.6,0,0,0,5.05-4.05,22.79,22.79,0,0,1,2.35-2.45,19,19,0,0,1,11.28-3.56,31,31,0,0,1,11.91,1.85,19.72,19.72,0,0,1,9.13,7.56A27.94,27.94,0,0,1,756.85,191a96.62,96.62,0,0,1,.92,14.77q-.09,7.48-.61,14.74a42.87,42.87,0,0,1-.84,7.16,16.24,16.24,0,0,1-2.8,6.57,7.79,7.79,0,0,1-6.27,3,9.91,9.91,0,0,1-7.36-2.78,14.77,14.77,0,0,1-3.81-6.82,26,26,0,0,1-.86-7.94q.22-2.81.67-5.79a50.84,50.84,0,0,0,.71-10.54,13.81,13.81,0,0,0-4-9.19c-2.22-2.16-4.54-3.22-7-3.16h-.24a9.76,9.76,0,0,0-6.56,3,12.61,12.61,0,0,0-3.49,7.18,25.25,25.25,0,0,0,.05,6,57.51,57.51,0,0,0,1.07,5.95,60.82,60.82,0,0,1,1.19,7.31,19.19,19.19,0,0,1-.75,7.4,14.39,14.39,0,0,1-4.28,6.61,12.88,12.88,0,0,1-6.89,3.21c-.35,0-.71.07-1.06.08a10.6,10.6,0,0,1-6.44-2.17,13.29,13.29,0,0,1-4.63-6.58,23.91,23.91,0,0,1-.94-8,68.81,68.81,0,0,1,.84-8.18,9,9,0,0,1,.15-1.09,41.15,41.15,0,0,0,.32-8.68,15,15,0,0,0-2.6-8.05c-1.33-1.86-3.41-2.75-6.26-2.69a14.22,14.22,0,0,0-1.54.12,10.48,10.48,0,0,0-6.9,4.15,17,17,0,0,0-2.91,7.51,34,34,0,0,0-.25,8.2l.15,1.82a75.24,75.24,0,0,1,.42,8.3,21.18,21.18,0,0,1-1.51,7.91,12.1,12.1,0,0,1-5.44,5.92,11.08,11.08,0,0,1-4.64,1.26,9.37,9.37,0,0,1-6.75-2.89,14,14,0,0,1-3.07-5.42,32.72,32.72,0,0,1-1.19-6.13q-1.12-9.57-1.57-19.27c-.06-1.25-.15-2.5-.25-3.76-.08-1.63-.21-3.29-.4-5a64.53,64.53,0,0,1-.29-13.23,14,14,0,0,1,2-5.87,9.44,9.44,0,0,1,4.65-3.93,9.26,9.26,0,0,1,3.11-.62m-.26-11.86h0a21.34,21.34,0,0,0-7.06,1.38l-.22.09a21.35,21.35,0,0,0-10.36,8.78,25.77,25.77,0,0,0-3.64,10.79l0,.25a76.44,76.44,0,0,0,.34,15.62c.15,1.38.26,2.76.32,4.1l0,.44c.09,1.12.17,2.25.23,3.37.31,6.67.85,13.37,1.62,19.94a44.54,44.54,0,0,0,1.62,8.26,25.87,25.87,0,0,0,5.61,10c.22.23.44.46.67.68a21,21,0,0,0,15.17,6.13,22.7,22.7,0,0,0,9.69-2.51l.58-.31a24,24,0,0,0,10.3-11.18,25.41,25.41,0,0,0,7.52,9.53c.16.13.33.26.51.38A22.44,22.44,0,0,0,705,249.64a23.42,23.42,0,0,0,2.36-.18,24.6,24.6,0,0,0,13.18-6.07,26.15,26.15,0,0,0,5.94-7.58,26,26,0,0,0,5,7,21.62,21.62,0,0,0,15.76,6.29h.3l.32,0a19.62,19.62,0,0,0,15.24-7.81A27.9,27.9,0,0,0,768,230a55.44,55.44,0,0,0,1-8.84c.36-5,.57-10.09.63-15.21a109.73,109.73,0,0,0-1-16.55,39.79,39.79,0,0,0-5.82-15.95,31.42,31.42,0,0,0-14.45-12.08l-.42-.17a42.7,42.7,0,0,0-16.45-2.64,30.69,30.69,0,0,0-18.14,5.93c-.28.21-.56.44-.83.68-.63.58-1.26,1.19-1.86,1.82A31.59,31.59,0,0,0,695,159.59a29.09,29.09,0,0,0-5.42-.39A29.92,29.92,0,0,0,675,163.47l-.23.14c-.68.42-1.35.87-2,1.35a18.82,18.82,0,0,0-8.78-4.81,21.58,21.58,0,0,0-5.47-.59Z"/><path class="cls-2" d="M408.58,250.71c-4.29.09-8.62,0-12.86-.2A96.25,96.25,0,0,1,382.81,249l-.08,0c-10.13-2.08-17.45-6.21-21.77-12.27l-.09-.14c-4.21-6.29-7.27-16.43,2-29.06a1.09,1.09,0,0,1,.13-.17,48,48,0,0,1,9.24-8.93c3.17-2.32,6.45-4.52,9.75-6.53l.07,0c3-1.77,5.83-3.62,8.44-5.51a31.18,31.18,0,0,0,5.1-4.62,15.82,15.82,0,0,0-1.89.53,36.6,36.6,0,0,1-6,1.45h-.08a43.81,43.81,0,0,1-5.13.43,34.42,34.42,0,0,1-10.18-1.24,30.06,30.06,0,0,1-8.41-4,21.94,21.94,0,0,1-7.32-8.13,1.09,1.09,0,0,1-.08-.15,16.72,16.72,0,0,1-.45-14.07l.13-.31a20.64,20.64,0,0,1,13-11.1,62.67,62.67,0,0,1,13.9-2.54h.13c.77-.07,1.52-.16,2.24-.26,7.88-1.1,16.65-1.89,26.11-2.36.94,0,1.88-.08,2.81-.1a97.62,97.62,0,0,1,26.11,2.93l.15,0C456,147.1,460.16,155.7,461,162.16c0,.13,0,.26,0,.39a21.92,21.92,0,0,1-4.44,14.95,58.18,58.18,0,0,1-8.37,9.06l-.46.48a3.7,3.7,0,0,1-.28.28c-6.68,6.12-13.32,12-19.74,17.42-.32.29-.67.59-1.08.91,1.41,0,2.83,0,4.26,0l1.67-.06c2.3,0,4.6,0,6.84.15h.1a54.53,54.53,0,0,1,12,2.47A27.1,27.1,0,0,1,464,216.54a3,3,0,0,1,.22.28,17.18,17.18,0,0,1,3.46,13.31c0,.05,0,.09,0,.14a19.36,19.36,0,0,1-8.53,12.85l-.13.09a34.62,34.62,0,0,1-13.68,5.24,86.8,86.8,0,0,1-11,1h-1c-2.92.12-6,.3-9.06.53C419.1,250.36,413.82,250.59,408.58,250.71Z"/><path class="cls-3" d="M414.56,145.75a91.11,91.11,0,0,1,24.52,2.75q14.7,4.14,16,14.42a16.06,16.06,0,0,1-3.26,11,52.65,52.65,0,0,1-7.71,8.32l-.66.69q-10,9.18-19.63,17.33c-.39.34-.89.75-1.5,1.21s-1.57,1.3-2.57,2.17a24.62,24.62,0,0,0-2.64,2.68,3.87,3.87,0,0,0-1.13,2.39c.12.5.81,1,2.06,1.55a21.13,21.13,0,0,0,6.19,1.22q3.39.18,6.85.1l1.61-.05q3.21-.07,6.33.13a48.14,48.14,0,0,1,10.64,2.21,21.22,21.22,0,0,1,9.82,6.54,11.2,11.2,0,0,1,2.31,8.81,13.6,13.6,0,0,1-6.05,9,28.54,28.54,0,0,1-11.35,4.34,76.68,76.68,0,0,1-10.19.95l-1,0q-4.56.18-9.36.54-7.68.51-15.44.68-6.24.15-12.42-.19a88,88,0,0,1-12.11-1.46q-13-2.67-18.12-9.9-6.9-10.32,1.87-22.25a42,42,0,0,1,8.1-7.82q4.58-3.36,9.32-6.25t8.91-5.81a36.17,36.17,0,0,0,7.28-7q2.63-3.6,1.29-6.45c-.88-1.55-2.58-2.3-5.12-2.25a21.34,21.34,0,0,0-5.63,1.14,30.29,30.29,0,0,1-4.95,1.21,38.34,38.34,0,0,1-4.43.37,28.28,28.28,0,0,1-8.42-1,24.06,24.06,0,0,1-6.75-3.22,16.24,16.24,0,0,1-5.37-6,10.72,10.72,0,0,1-.28-9.19,14.52,14.52,0,0,1,9.32-8,56.25,56.25,0,0,1,12.57-2.31h.09c.95-.08,1.88-.18,2.78-.31q11.53-1.6,25.53-2.3c.89,0,1.77-.08,2.65-.1m-.26-11.86c-1,0-2,.06-3,.11-9.64.47-18.59,1.28-26.59,2.39l-.09,0c-.57.08-1.17.15-1.78.2h-.11a68.68,68.68,0,0,0-15.22,2.78,26.36,26.36,0,0,0-16.63,14.21c-.09.21-.19.42-.27.63a22.46,22.46,0,0,0,.61,18.93l.16.32a28,28,0,0,0,9.27,10.29,36.18,36.18,0,0,0,10.1,4.77,37.88,37.88,0,0,0,3.92.89c-2,1.33-4,2.71-5.95,4.14a53.94,53.94,0,0,0-10.39,10l-.25.33c-11.92,16.22-6.48,29.44-2.17,35.88.06.09.12.19.19.28,5.21,7.32,13.76,12.25,25.4,14.65l.16,0a103.5,103.5,0,0,0,13.71,1.66c4.4.23,8.87.3,13.31.2,5.33-.12,10.7-.36,16-.7h.11c3-.23,5.93-.4,8.76-.52h.95a91.42,91.42,0,0,0,11.73-1.09,40.51,40.51,0,0,0,16-6.12l.26-.18a25.35,25.35,0,0,0,11-16.71c0-.09,0-.18.05-.28a23,23,0,0,0-4.61-17.8c-.14-.19-.29-.37-.44-.55a33.05,33.05,0,0,0-15.23-10.11,63.38,63.38,0,0,0-11.08-2.49c3.08-2.73,6.19-5.53,9.3-8.38.19-.17.38-.36.56-.55l.27-.28a64.16,64.16,0,0,0,9-9.8A28,28,0,0,0,467,162.17c0-.26,0-.51-.07-.77a25.77,25.77,0,0,0-8.5-16c-4.08-3.67-9.34-6.38-16.07-8.28L442,137a103.32,103.32,0,0,0-27.7-3.11Z"/><path class="cls-2" d="M608.42,248.43a47.3,47.3,0,0,1-32.76-12.18,47.06,47.06,0,0,1,29.42-81.8l1.32,0c8-.17,14.91,1,21,3.51a23.7,23.7,0,0,1,13.88,25.33c-.18,1.16-.38,2.32-.58,3.48-.08.52-.17,1-.26,1.57,0,.16-.06.32-.1.48a26.07,26.07,0,0,0,1.87,18.63c5.35,10.69,4.25,25.39-10.3,34.14a47.73,47.73,0,0,1-23.48,6.88ZM605,200.34c-2.12,0-5.71,1.91-6.34,6.7-.4,3.06,1.22,5.2,4.33,5.72a6.69,6.69,0,0,0,1.32.1,4.49,4.49,0,0,0,4.66-3.87c.45-2.7.63-7.42-3.22-8.57A2.6,2.6,0,0,0,605,200.34Z"/><path class="cls-3" d="M606.53,160.35a44.91,44.91,0,0,1,18.57,3.05,17.72,17.72,0,0,1,10.3,18.94c-.25,1.66-.55,3.32-.82,5a31.92,31.92,0,0,0,2.31,22.75c4.45,8.87,3,19.74-8,26.39A41.26,41.26,0,0,1,566.11,203c-1-22.19,17-41.77,39.2-42.63.41,0,.81,0,1.22,0m-2.13,58.44A10.4,10.4,0,0,0,614.77,210c1-6.07-.35-13.13-7.37-15.24a8.7,8.7,0,0,0-2.58-.32c-5,.11-11.08,4.13-12.1,11.86A10.7,10.7,0,0,0,602,218.61a12.61,12.61,0,0,0,2.43.18m1.86-70.31-1.41,0a52.9,52.9,0,0,0-33.16,92.15,53.17,53.17,0,0,0,63.26,6c7.91-4.75,13.18-11.53,15.23-19.61a32.15,32.15,0,0,0-2.68-22.27,20.12,20.12,0,0,1-1.42-14.52c.08-.31.15-.63.2-.95.09-.51.17-1,.26-1.53.2-1.17.4-2.37.59-3.61,2-13.28-5.29-26.61-17.45-31.69-6.86-2.87-14.52-4.17-23.42-4Z"/><path class="cls-2" d="M517.66,254.34a61.88,61.88,0,0,1-42.72-16.1,60.8,60.8,0,0,1,39.4-105.34c11.24-.24,20.67,1.38,28.86,5,12,5.25,19.06,18.69,16.78,31.94-.26,1.55-.56,3.11-.84,4.61l-.39,2.08a4.15,4.15,0,0,1-.11.48,36.88,36.88,0,0,0,2.2,26.28c6.51,13.55,4.79,32-13.72,42.72a61,61,0,0,1-29.46,8.36Zm-6.34-59.29c-3.46.07-9.37,3-10.48,10.52-.77,5.13,2.1,9.07,7.29,10a10.75,10.75,0,0,0,2.31.19,8,8,0,0,0,8.1-6.7c.63-3.43,1.36-11.64-5.48-13.82A5.46,5.46,0,0,0,511.32,195.05Z"/><path class="cls-3" d="M514.47,138.83h0c9-.19,18,.83,26.32,4.47,9.65,4.23,15.1,15.12,13.31,25.5-.38,2.22-.81,4.42-1.21,6.63a42.57,42.57,0,0,0,2.57,30.39c5.73,11.93,3.57,26.4-11.34,35a55.39,55.39,0,0,1-26.62,7.57c-28.74.64-55.39-21.57-56.29-53.62-.83-29.6,23.58-55.3,53.23-56m-3.9,82.89a13.91,13.91,0,0,0,13.8-11.56c1.49-8.1-.16-17.58-9.52-20.55a11.14,11.14,0,0,0-3.66-.49c-6.65.14-14.71,5.39-16.22,15.58-1.22,8.2,3.66,15.18,12.08,16.73a17.79,17.79,0,0,0,3.52.29M514.24,127h0a64.62,64.62,0,0,0-25.64,5.94A68.1,68.1,0,0,0,454,169.24a64.4,64.4,0,0,0-4.64,25.89,66.23,66.23,0,0,0,21.56,47.49,67.5,67.5,0,0,0,21.58,13.28,66.74,66.74,0,0,0,57.57-4.79c9.73-5.62,16.27-13.72,18.92-23.42a38.88,38.88,0,0,0-2.82-27,30.65,30.65,0,0,1-1.82-22.16c.09-.31.16-.63.22-.95.12-.69.25-1.37.38-2.06.29-1.53.59-3.11.86-4.71,2.73-15.9-5.79-32-20.25-38.38-9-3.94-19.24-5.72-31.34-5.46Zm-3.93,82.88a5.41,5.41,0,0,1-1.11-.09c-2.06-.38-2.79-1.34-2.49-3.32.65-4.44,3.88-5.43,4.73-5.46a1.52,1.52,0,0,1,1.12,1.12,12.13,12.13,0,0,1,.14,5.91c-.1.53-.33,1.8-2.39,1.84Z"/><path class="cls-2" d="M176.55,180.77a13.6,13.6,0,0,1-4-.53c-.19-.06-.38-.12-.57-.2-4.05-1.63-6.48-4.82-6.67-8.76a16.06,16.06,0,0,1,1.57-7.61,74.12,74.12,0,0,1,6.95-12.25c.35-.53.72-1.07,1.1-1.62a55.57,55.57,0,0,1,3.76-5.06,21.23,21.23,0,0,1,5.88-5l.19-.11a16,16,0,0,1,7-1.88,14.84,14.84,0,0,1,4.08.48,16,16,0,0,1,8.79,5.85,15.56,15.56,0,0,1,3.17,10.57c0,.11,0,.22,0,.34a15.58,15.58,0,0,1-3.43,8.36,26.22,26.22,0,0,1-5.44,4.9c-2.72,1.91-5.49,3.82-8.22,5.69l-.05,0-3.51,2.36-.08.06a32.55,32.55,0,0,1-5.47,3.18A12.8,12.8,0,0,1,176.55,180.77Z"/><path class="cls-3" d="M191.92,143.72a8.88,8.88,0,0,1,2.45.29,10.11,10.11,0,0,1,5.58,3.72,9.57,9.57,0,0,1-.14,11.87,20.23,20.23,0,0,1-4.24,3.81q-4.09,2.86-8.19,5.67l-3.54,2.38a.67.67,0,0,0-.24.16,25.44,25.44,0,0,1-4.45,2.58,6.77,6.77,0,0,1-2.73.64,7.32,7.32,0,0,1-2.24-.3c-1.9-.77-2.89-1.94-3-3.54a10.11,10.11,0,0,1,1-4.86,67.81,67.81,0,0,1,6.45-11.36l1.14-1.68a50.47,50.47,0,0,1,3.39-4.57,15.59,15.59,0,0,1,4.26-3.6,10,10,0,0,1,4.43-1.21m-.26-11.86a21.76,21.76,0,0,0-9.66,2.55l-.39.21a27.45,27.45,0,0,0-7.5,6.32,62.73,62.73,0,0,0-4.13,5.55l-1.07,1.58a79.53,79.53,0,0,0-7.45,13.13,22,22,0,0,0-2.1,10.36c.3,6.26,4.18,11.49,10.38,14a12,12,0,0,0,1.15.39,19.47,19.47,0,0,0,5.79.77,18.86,18.86,0,0,0,7.39-1.7,38.18,38.18,0,0,0,6.45-3.74L194,179l.1-.07c2.73-1.87,5.5-3.79,8.24-5.71a31.92,31.92,0,0,0,6.64-6,21.27,21.27,0,0,0,4.75-11.5c0-.22.05-.45.06-.68a21.65,21.65,0,0,0-4.39-14.48,22.06,22.06,0,0,0-12-8,21,21,0,0,0-5.72-.67Z"/><path class="cls-2" d="M72.56,261.3c-.85,0-1.71,0-2.57,0a27.45,27.45,0,0,1-7.24-1.08l-.39-.12A16,16,0,0,1,52,249.35a49.11,49.11,0,0,1-1.95-11.71l-.16-2.33c-.77-9-1.25-18.13-1.41-27.18-.18-6.3-.45-12.65-.81-18.87a41.44,41.44,0,0,1,.15-8.33,15.88,15.88,0,0,1,4.91-9.76L53,171a18.84,18.84,0,0,1,8.39-4.11,55,55,0,0,1,7.21-1.05l.32,0h.29c2.29-.22,4.6-.36,6.88-.41a90.6,90.6,0,0,1,27,3.52l.21.06a46.18,46.18,0,0,1,25.55,19.79c5.94,9.52,8.13,20.4,6.5,32.33a.68.68,0,0,1,0,.14,46.19,46.19,0,0,1-15.06,27.87l-.17.14a44.3,44.3,0,0,1-14.38,8,66.55,66.55,0,0,1-15.28,3.16c-2.83.26-5.71.43-8.54.49-1.58,0-3.17.1-4.75.21h-.27l-.73,0C75,261.21,73.77,261.28,72.56,261.3ZM90,209a7.44,7.44,0,0,0-6.61,5c-1.16,2.87-.13,5.35,2.76,6.63a6.3,6.3,0,0,0,2.71.59,4.34,4.34,0,0,0,4-2.74c1.11-2.51,2.47-7-1-9.11A3.86,3.86,0,0,0,90,209Z"/><path class="cls-3" d="M76.23,171.29a84.44,84.44,0,0,1,25.27,3.29,40.23,40.23,0,0,1,22.36,17.29q7.81,12.52,5.65,28.39a40.26,40.26,0,0,1-13.16,24.39,38.53,38.53,0,0,1-12.46,6.95A60.36,60.36,0,0,1,90,254.48q-4.11.38-8.16.47c-1.67,0-3.34.11-5,.22l-.91,0c-1.14.1-2.29.15-3.45.18-.78,0-1.56,0-2.34,0a22.13,22.13,0,0,1-5.7-.85,10.1,10.1,0,0,1-6.66-6.87A42.43,42.43,0,0,1,56,237.31c-.06-.84-.12-1.66-.17-2.46q-1.16-13.38-1.4-26.85-.27-9.65-.82-19.17a35.29,35.29,0,0,1,.12-7.19,10,10,0,0,1,3.12-6.18,12.81,12.81,0,0,1,5.76-2.81,48.44,48.44,0,0,1,6.43-.94l.52,0q3.33-.33,6.65-.4M89,227.16a10.26,10.26,0,0,0,9.31-6.26c2.5-5.62,3-12.8-3.32-16.59a9.5,9.5,0,0,0-5.11-1.24,13.34,13.34,0,0,0-12,8.72,10.7,10.7,0,0,0,5.85,14.27,12.21,12.21,0,0,0,5.25,1.1M76,159.42c-2.35.06-4.74.2-7.1.42H68.8l-.65,0a61.87,61.87,0,0,0-8,1.17,24.65,24.65,0,0,0-11,5.4l-.49.45A21.91,21.91,0,0,0,42,180.22a46.67,46.67,0,0,0-.18,9.45c.35,6.14.62,12.4.8,18.6.16,9.16.64,18.41,1.43,27.51,0,.71.1,1.45.15,2.2A54.64,54.64,0,0,0,46.35,251a22,22,0,0,0,14,14.66l.76.25a34.16,34.16,0,0,0,8.79,1.3c.94,0,1.88,0,2.8,0,1.27,0,2.54-.1,3.79-.19h.58l.53,0c1.49-.1,3-.17,4.49-.2,3-.07,6-.24,8.94-.51a72.79,72.79,0,0,0,16.62-3.44,50.31,50.31,0,0,0,16.28-9.08c.12-.09.23-.19.34-.29a52,52,0,0,0,17-31.35,2.7,2.7,0,0,0,0-.28c1.82-13.34-.65-25.54-7.34-36.27a52,52,0,0,0-28.75-22.29l-.41-.12A96.51,96.51,0,0,0,76,159.42Z"/><path class="cls-2" d="M189.38,259.94h-1.06a13.43,13.43,0,0,1-9.42-4.14,5.87,5.87,0,0,1-.41-.46,13.86,13.86,0,0,1-2.14-3.89,24.15,24.15,0,0,0-2.22,1.83l-.2.19a25.57,25.57,0,0,1-16.21,6.41h-.4A22.37,22.37,0,0,1,141,253.52l-.26-.27c-5-5.35-7.18-11.74-6.33-18.47a26.66,26.66,0,0,1,8.8-16.65l.22-.19q.24-.21.48-.39A17.81,17.81,0,0,1,139,215.7l-.29-.18a12.8,12.8,0,0,1-6.31-10.68,15.26,15.26,0,0,1,4.12-10.67l.19-.21a29.52,29.52,0,0,1,9.48-6.31,68.3,68.3,0,0,1,9.41-3.19,59,59,0,0,1,13.79-2.1l.61,0a44.25,44.25,0,0,1,13.88,1.87A32.08,32.08,0,0,1,197,192l.09.08a32.46,32.46,0,0,1,7.72,12.29,51.6,51.6,0,0,1,2.71,13.24,114.82,114.82,0,0,1,.26,12.54,82.06,82.06,0,0,1-.89,10.87,28.93,28.93,0,0,1-4.61,12.34c-2,2.92-5.84,6.43-12.92,6.59ZM166.43,233a2.34,2.34,0,0,0-2.06,1.7c-.23.57-.21.88.54,1.21a1.54,1.54,0,0,0,.71.17c.24,0,.35-.05.49-.36a4.33,4.33,0,0,0,.5-2.65h0l-.07-.07Z"/><path class="cls-3" d="M170.14,188.27a38.41,38.41,0,0,1,12,1.62,25.95,25.95,0,0,1,17.06,16.41A45.73,45.73,0,0,1,201.63,218a109.76,109.76,0,0,1,.23,12,73.25,73.25,0,0,1-.83,10.15A23,23,0,0,1,197.4,250q-2.64,3.88-8.15,4h-.78a7.46,7.46,0,0,1-5.31-2.34,7.59,7.59,0,0,1-1.43-2.94,10.38,10.38,0,0,0-.79-2.15,3.63,3.63,0,0,0-3.15-2l-.32,0a8.93,8.93,0,0,0-4.08,1.69A31.58,31.58,0,0,0,170,249a19.65,19.65,0,0,1-12.54,5h-.31A16.54,16.54,0,0,1,145,249.2q-5.73-6.15-4.79-13.68a20.82,20.82,0,0,1,6.94-13,19.42,19.42,0,0,1,12.38-4.62h.36c1,0,2,.07,3,.16q1.83.12,3.63.09a8.41,8.41,0,0,0,3.26-.7,3.73,3.73,0,0,0,2.27-3.11,5.66,5.66,0,0,0-1.08-3.71,5.46,5.46,0,0,0-3.22-2.27,14.62,14.62,0,0,0-2.95-.23,15.37,15.37,0,0,0-2.84.33,51.62,51.62,0,0,0-5.87,1.58,35.72,35.72,0,0,1-7.3,1.85,11.42,11.42,0,0,1-1.29.11,11,11,0,0,1-5.67-1.47,6.84,6.84,0,0,1-3.56-5.8,9.26,9.26,0,0,1,2.6-6.57,23.19,23.19,0,0,1,7.56-5,61.3,61.3,0,0,1,8.65-2.93,52.88,52.88,0,0,1,12.46-1.9l.54,0M165.76,242a6.37,6.37,0,0,0,5.77-3.89c1.55-3.48,1.84-7.94-2.06-10.29a5.83,5.83,0,0,0-3.17-.77,8.27,8.27,0,0,0-7.43,5.41,6.64,6.64,0,0,0,3.63,8.86,7.67,7.67,0,0,0,3.26.68m4.11-65.62-.69,0a64.81,64.81,0,0,0-15.11,2.29,74.63,74.63,0,0,0-10.18,3.46,35.29,35.29,0,0,0-11.39,7.61l-.39.41A21.11,21.11,0,0,0,126.47,205a18.37,18.37,0,0,0,7.59,14.55A31.67,31.67,0,0,0,128.47,234c-1.07,8.53,1.65,16.57,7.87,23.25.17.19.35.36.53.54a28.53,28.53,0,0,0,20.58,8l.5,0a31.28,31.28,0,0,0,17-5.6,19.19,19.19,0,0,0,13.16,5.66h1.43c7.5-.16,13.78-3.42,17.7-9.18a34.85,34.85,0,0,0,5.57-14.84,86,86,0,0,0,.95-11.59,120.05,120.05,0,0,0-.27-13.1,58,58,0,0,0-3-14.74,38.23,38.23,0,0,0-9.12-14.53l-.17-.17a38.19,38.19,0,0,0-15.55-9.19,50.36,50.36,0,0,0-15.73-2.12Z"/><path class="cls-2" d="M281.67,257a45,45,0,0,1-45.8-39.67,45.15,45.15,0,0,1,39.18-49.75c2.17-.25,4.2-.4,6.18-.44a44.86,44.86,0,0,1,15.29,2.11,22.78,22.78,0,0,1,15.17,23.25c-.09,1.12-.19,2.23-.29,3.35l-.14,1.49a3.86,3.86,0,0,1-.06.49,24.17,24.17,0,0,0,3.08,17.27c5.91,9.83,5.93,24-7.35,33.43A45.22,45.22,0,0,1,281.67,257Zm3.8-39.52c-1.61,0-5.23,1.73-5.49,6.55-.15,2.76,1.45,4.56,4.27,4.81a6.15,6.15,0,0,0,.74,0,4.09,4.09,0,0,0,4.33-3.77c.22-2.5.07-6.81-3.45-7.58A1.83,1.83,0,0,0,285.47,217.5Z"/><path class="cls-3" d="M281.36,173.09a39.07,39.07,0,0,1,13.3,1.82,16.82,16.82,0,0,1,11.11,17.16c-.12,1.59-.28,3.18-.42,4.77a30.27,30.27,0,0,0,3.84,21.34c4.84,8,4.28,18.44-5.7,25.53a39.14,39.14,0,0,1-61.73-27.08c-2.55-20.9,13-40.71,34-43.14,1.88-.22,3.76-.36,5.63-.4m3.76,61.72a10,10,0,0,0,10.11-9.17c.52-5.83-1.28-12.43-8.1-13.91a7.51,7.51,0,0,0-1.79-.16c-4.87.11-10.87,4.41-11.28,12.16a10.18,10.18,0,0,0,9.66,11,13.17,13.17,0,0,0,1.4,0m-4-73.58c-2.17,0-4.37.2-6.73.47A51.09,51.09,0,0,0,230,218.07a50.73,50.73,0,0,0,17.93,33.06,51,51,0,0,0,62.46,2.25c7.26-5.16,11.83-12.09,13.22-20a31.08,31.08,0,0,0-4.23-21.28,18.46,18.46,0,0,1-2.31-13.2c.05-.32.09-.65.12-1,.05-.49.09-1,.14-1.48.1-1.11.21-2.26.3-3.44,1-13-7.09-25.32-19.23-29.33a50.71,50.71,0,0,0-17.28-2.41Z"/><polygon class="cls-3" points="447.99 190.52 438.95 201.87 450.96 204.89 454.74 195.99 447.99 190.52"/><polyline class="cls-3" points="507.62 196.41 501.48 208.81 512.47 215.73 516.95 208.47 514.06 197.55 507.38 195.49"/></g></g></svg>