<?xml version="1.0" encoding="utf-8"?>
<!-- Generator: Adobe Illustrator 24.2.1, SVG Export Plug-In . SVG Version: 6.00 Build 0)  -->
<svg version="1.1" id="Camada_1" xmlns="http://www.w3.org/2000/svg" xmlns:xlink="http://www.w3.org/1999/xlink" x="0px" y="0px"
	 viewBox="0 0 80 80" style="enable-background:new 0 0 80 80;" xml:space="preserve">
<style type="text/css">
	.st0{fill:url(#SVGID_1_);}
	.st1{fill:#FFFFFF;}
</style>
<linearGradient id="SVGID_1_" gradientUnits="userSpaceOnUse" x1="13.7002" y1="15.6668" x2="64.3127" y2="66.2793">
	<stop  offset="0" style="stop-color:#FFFA00"/>
	<stop  offset="1" style="stop-color:#FF7236"/>
</linearGradient>
<path class="st0" d="M72.5,30.1c2.5-4.2-2.6-10.3-7.3-7.3c0,0-0.1,0-0.1,0.1c0.3-0.3,0.5-0.5,0.8-0.8c4.4-4.1-1.3-11.6-6.5-8.4
	c-3.2,2-6.4,4.1-9.6,6.2c2.6-2.5,5.3-5,8-7.5c4.6-4.2-1.3-11.1-6.5-8.4c-1.2,0.7-2.4,1.4-3.7,2.1c0.8-3.9-3.5-7.6-7.9-5.6
	C28,6,17.2,13.2,7.6,21.8c-4.2,3.7,0.1,9.4,4.6,8.9c-3.2,3.9-6.3,7.8-9.3,11.8c-3,4.1,2,8.8,6.1,7.8C8,51.6,7.1,52.8,6.1,54
	c-1.5,2.1-0.6,5.4,1.4,6.9c2.2,1.6,5,1.4,7-0.4c0.6-0.5,1.2-1,1.7-1.5c-1,1.1-1.9,2.2-2.9,3.3c-1.8,2.2-2.2,5.4,0,7.5
	c1.7,1.7,4.6,2,6.6,0.7c0.3,1.3,1,2.6,2,3.3c2.1,1.5,4.3,1.3,6.3,0.1c-0.2,3.9,4.2,7.9,7.9,5.1c2.2-1.7,4.4-3.3,6.6-5
	c1.5,2.8,5.3,4.3,8.4,1.5c4.9-4.4,10-8.3,15.5-11.9c2.8-1.8,3-4.9,1.7-7.2l5.4-5.9c1.8-2,2.1-4.9,0.4-7c-0.3-0.4-0.7-0.8-1.2-1.1
	c1.2-1.1,2.4-2.2,3.5-3.3C80.2,35.8,76.7,30,72.5,30.1z"/>
<g id="Camada_2_1_">
	<g id="Camada_1-2">
		<path class="st1" d="M63,42.2c-0.3,1.1-0.8,2.1-1.5,3c-0.7,1.1-0.7,2.2-0.5,3.4c0.1,0.5,0.1,1.1,0.1,1.7c0,1.1-0.6,2.1-1.5,2.7
			c-0.6,0.5-1.3,0.9-1.9,1.3c-0.7,0.4-1.2,1-1.4,1.7c-0.1,0.4-0.3,0.8-0.4,1.3c-0.6,2.1-2,3.1-4.2,3.2c-0.3,0-0.7,0.1-1,0.1
			c-0.9,0.1-1.7,0.5-2.3,1.1c-0.5,0.5-1,1-1.5,1.4c-1,0.9-2.4,1.2-3.6,0.8c-0.6-0.2-1.1-0.3-1.7-0.6c-1-0.4-2.1-0.4-3.1,0
			c-0.7,0.3-1.4,0.5-2.1,0.6c-0.9,0.2-2,0-2.7-0.6c-0.5-0.4-1-0.8-1.4-1.2c-0.9-1.1-2.3-1.8-3.7-1.7c-0.3,0-0.6-0.1-0.9-0.1
			c-1.5-0.2-2.7-1.2-3.2-2.6c-0.2-0.6-0.5-1.2-0.7-1.9c-0.2-0.7-0.7-1.3-1.3-1.7c-0.7-0.4-1.3-0.8-1.9-1.3c-1.2-0.9-1.7-2-1.6-3.5
			c0-0.6,0.1-1.2,0.2-1.8c0.1-0.8,0-1.7-0.5-2.4c-0.4-0.6-0.8-1.2-1.1-1.8c-0.7-1.2-0.7-2.6,0-3.7c0.2-0.4,0.4-0.8,0.7-1.2
			c0.9-1.2,1.1-2.5,0.8-3.9c-0.1-0.5-0.1-1.1-0.1-1.6c0-1.1,0.6-2.1,1.5-2.7c0.5-0.4,1.1-0.8,1.7-1.1c0.9-0.5,1.6-1.3,1.8-2.3
			c0.1-0.3,0.2-0.6,0.3-0.9c0.6-2.1,2-3.1,4.2-3.2c0.3,0,0.7-0.1,1-0.1c0.9-0.1,1.7-0.5,2.3-1.1c0.4-0.4,0.8-0.8,1.3-1.2
			c1.1-1.1,2.7-1.4,4.1-0.9c0.6,0.2,1.3,0.4,1.9,0.6c0.7,0.2,1.5,0.2,2.2,0c0.8-0.3,1.6-0.6,2.5-0.8c1-0.3,2.1,0,2.9,0.6
			c0.5,0.3,0.9,0.7,1.3,1.1c1,1.2,2.2,1.7,3.7,1.7c0.3,0,0.7,0.1,1,0.1c1.5,0.2,2.7,1.2,3.1,2.6c0.2,0.6,0.5,1.2,0.7,1.8
			c0.2,0.7,0.7,1.4,1.4,1.7c0.6,0.4,1.3,0.8,1.9,1.2c1.2,0.9,1.7,2,1.6,3.5c0,0.6-0.1,1.2-0.2,1.8c-0.1,0.8,0,1.7,0.5,2.4
			c0.3,0.4,0.5,0.8,0.8,1.3c0.3,0.6,0.6,1.3,0.8,1.9V42.2z M20.7,49.6c-0.2,1.2,0.4,1.9,1.3,2.4c2,0.9,3.4,2.7,3.9,4.8
			c0.3,1.3,1.2,1.9,2.4,1.9c0.1,0,0.2,0,0.3,0c2,0.1,3.6,0.7,4.9,2.3c0.3,0.3,0.6,0.6,0.9,0.9c0.5,0.4,1.1,0.6,1.7,0.4
			c0.6-0.2,1.2-0.3,1.7-0.6c1.3-0.5,2.7-0.5,4,0c0.6,0.2,1.2,0.4,1.8,0.6c0.6,0.2,1.2,0.1,1.7-0.4c0.5-0.4,1-0.9,1.4-1.4
			c0.8-0.9,2-1.5,3.3-1.7c0.4,0,0.9-0.1,1.3-0.2c1.3-0.1,2.2-0.7,2.5-2c0.1-0.4,0.3-0.7,0.4-1.1c0.4-1.3,1.3-2.5,2.5-3.2
			c0.5-0.3,1-0.6,1.5-1c0.6-0.4,1-1.1,0.9-1.9c0-0.4,0-0.7-0.1-1.1c-0.3-1.8-0.1-3.4,1-4.8c0.2-0.3,0.4-0.6,0.6-0.9
			c0.5-0.8,0.5-1.8,0-2.5c-0.3-0.5-0.6-1.1-1-1.6c-0.7-1-0.9-2.3-0.7-3.5c0.1-0.6,0.1-1.1,0.2-1.7c0.1-0.8-0.2-1.6-0.9-2
			c-0.4-0.3-0.9-0.6-1.4-0.9c-1.3-0.7-2.2-1.9-2.6-3.3c-0.2-0.5-0.4-1-0.6-1.5c-0.3-0.7-0.9-1.3-1.7-1.3c-0.3,0-0.5-0.1-0.8-0.1
			c-2-0.1-3.6-0.8-4.9-2.3c-0.2-0.2-0.4-0.5-0.7-0.7c-0.6-0.6-1.5-0.8-2.2-0.5c-0.6,0.2-1.3,0.4-1.9,0.6c-1.1,0.4-2.2,0.4-3.3,0
			c-0.6-0.2-1.3-0.4-1.9-0.6c-0.8-0.3-1.7-0.1-2.3,0.5c-0.5,0.5-1,1-1.5,1.5c-0.6,0.6-1.4,1-2.3,1.2c-0.6,0.1-1.2,0.2-1.8,0.2
			c-1.4,0.1-2.3,0.7-2.6,2c-0.1,0.3-0.2,0.6-0.3,0.9c-0.4,1.4-1.4,2.7-2.7,3.4c-0.5,0.3-0.9,0.6-1.4,0.9c-0.6,0.4-0.9,1.1-0.9,1.8
			c0,0.4,0,0.7,0.1,1.1c0.3,1.7,0.1,3.4-1,4.8c-0.2,0.2-0.3,0.5-0.5,0.8c-0.7,0.9-0.7,2,0,2.9c0.3,0.5,0.6,1,0.9,1.5
			c0.6,1,0.8,2.1,0.7,3.3C20.9,48.5,20.8,49,20.7,49.6z"/>
		<path class="st1" d="M22.2,41.7c0-9.8,8-17.8,17.8-17.8c9.8,0,17.8,8,17.8,17.8c0,9.8-8,17.8-17.8,17.8c0,0,0,0,0,0
			C30.2,59.4,22.2,51.5,22.2,41.7z M40,25.7c-8.8,0-16,7.2-16,16c0,8.8,7.2,16,16,16c8.8,0,16-7.2,16-16c0,0,0,0,0,0
			C56,32.9,48.8,25.7,40,25.7z"/>
		<path class="st1" d="M38.7,41.4c2-2.4,3.9-4.6,5.8-6.9c0.5-0.6,1.2-1.1,2-1.3c1.6-0.5,3.4,0.1,4.4,1.6c1,1.4,0.9,3.3-0.1,4.6
			c-1.4,1.7-2.9,3.4-4.3,5.1c-1.4,1.7-2.9,3.4-4.3,5.1c-1.8,2.1-4.3,2.1-6.2,0.2s-3.8-3.9-5.7-5.9c-1.5-1.5-1.5-4,0.1-5.5
			c0.5-0.5,1.1-0.8,1.7-1c1.4-0.4,2.8,0,3.8,1c0.9,0.8,1.7,1.7,2.5,2.6C38.5,41.1,38.6,41.3,38.7,41.4z M31,40.9
			c-0.1,0.7,0.2,1.3,0.7,1.8c1.9,2,3.8,3.9,5.7,5.9c1,1.1,2.4,1,3.3-0.1c0.7-0.8,1.3-1.6,2-2.3c2.2-2.6,4.4-5.2,6.5-7.8
			c0.5-0.5,0.7-1.3,0.5-2c-0.2-0.8-0.8-1.4-1.5-1.5c-0.8-0.2-1.6,0-2.1,0.7c-1.1,1.3-2.2,2.6-3.3,3.9c-1.1,1.2-2.1,2.5-3.2,3.7
			c-0.5,0.6-1,0.6-1.5,0.1c-0.1-0.1-0.2-0.2-0.3-0.3c-1-1.1-2-2.1-3.1-3.2c-0.6-0.7-1.6-0.9-2.4-0.5C31.6,39.5,31.1,40.1,31,40.9z"
			/>
	</g>
</g>
</svg>
