<svg xmlns="http://www.w3.org/2000/svg" xmlns:xlink="http://www.w3.org/1999/xlink" viewBox="0 0 35.76 37.56"><defs><style>.cls-1{fill:url(#linear-gradient);}.cls-2{fill:#ee1d52;}.cls-2,.cls-3,.cls-4{fill-rule:evenodd;}.cls-3{fill:#fff;}.cls-4{fill:#69c9d0;}</style><linearGradient id="linear-gradient" x1="5.53" y1="7.36" x2="29.3" y2="31.12" gradientUnits="userSpaceOnUse"><stop offset="0" stop-color="#22004a"/><stop offset="0.96" stop-color="#020003"/><stop offset="1"/></linearGradient></defs><g id="Camada_2" data-name="Camada 2"><g id="ELEMENTS"><path class="cls-1" d="M33.13,14.15c1.19-2-1.21-4.85-3.42-3.42l-.06,0L30,10.4c2.06-1.94-.6-5.43-3-3.93-1.51.94-3,1.92-4.5,2.91q1.85-1.8,3.73-3.52c2.17-2-.59-5.23-3-3.93-.58.31-1.14.65-1.72,1A2.57,2.57,0,0,0,17.76.26a60.78,60.78,0,0,0-15.1,10c-2,1.76,0,4.42,2.14,4.19C3.29,16.23,1.82,18.07.43,20s.93,4.15,2.86,3.65L2,25.37a2.49,2.49,0,0,0,.65,3.23,2.52,2.52,0,0,0,3.28-.2l.82-.71c-.45.53-.92,1-1.36,1.57a2.56,2.56,0,0,0,0,3.54,2.55,2.55,0,0,0,3.1.34,2.65,2.65,0,0,0,.94,1.56,2.48,2.48,0,0,0,3,0c-.08,1.82,2,3.71,3.71,2.39l3.08-2.33a2.47,2.47,0,0,0,3.94.7,55.63,55.63,0,0,1,7.3-5.57,2.46,2.46,0,0,0,.8-3.39l2.52-2.79a2.51,2.51,0,0,0,.19-3.28,2.39,2.39,0,0,0-.55-.5L35,18.43C36.77,16.81,35.13,14.08,33.13,14.15Z"/><path class="cls-2" d="M21.82,16.1a7.32,7.32,0,0,0,4.25,1.36V14.41a4.41,4.41,0,0,1-.89-.09v2.39a7.31,7.31,0,0,1-4.25-1.35v6.21a5.63,5.63,0,0,1-8.76,4.68,5.63,5.63,0,0,0,9.65-3.94V16.1ZM22.92,13a4.28,4.28,0,0,1-1.1-2.49v-.39H21A4.29,4.29,0,0,0,22.92,13ZM14.13,23.86a2.58,2.58,0,0,1,2.83-4V16.74a5.26,5.26,0,0,0-.89,0v2.42a2.54,2.54,0,0,0-.78-.12,2.57,2.57,0,0,0-1.16,4.87Z"/><path class="cls-3" d="M20.93,15.36a7.31,7.31,0,0,0,4.25,1.35V14.32A4.28,4.28,0,0,1,22.92,13,4.29,4.29,0,0,1,21,10.15H18.76V22.31a2.58,2.58,0,0,1-4.63,1.55A2.57,2.57,0,0,1,15.29,19a2.5,2.5,0,0,1,.78.12V16.69a5.62,5.62,0,0,0-3.9,9.56,5.63,5.63,0,0,0,8.76-4.68Z"/><path class="cls-4" d="M25.18,14.32v-.65A4.29,4.29,0,0,1,22.92,13,4.33,4.33,0,0,0,25.18,14.32ZM21,10.15c0-.12,0-.23-.05-.35V9.41H17.87V21.57a2.58,2.58,0,0,1-2.58,2.57,2.52,2.52,0,0,1-1.16-.28,2.58,2.58,0,0,0,4.63-1.55V10.15Zm-4.91,6.54V16a4.9,4.9,0,0,0-.77-.06,5.63,5.63,0,0,0-3.13,10.31,5.62,5.62,0,0,1,3.9-9.56Z"/></g></g></svg>